<svg xmlns="http://www.w3.org/2000/svg" width="1024" height="1024" viewBox="0 0 1024 1024">
  <g transform="translate(36.007, 36.006) scale(0.930)">
    <path stroke="#000" stroke-width="3.776" d="M239.94 515.317a271.872 271.872 0 1 0 543.744 0 271.872 271.872 0 1 0-543.744 0ZM446.925 31.989h129.654v177.744H446.925zm.06 781.904h129.654v177.744H446.986zm366.908-363.464h177.744v129.653H813.892zm-781.904.06h177.744v129.714H31.988zm99.25-257.728 91.746-91.694 125.644 125.719-91.745 91.695zm573.915 577.312 91.745-91.694 125.648 125.718-91.745 91.694zm-498.986 140.92-91.694-91.748 125.718-125.646 91.695 91.746zm577.36-573.912-91.694-91.745 125.675-125.605 91.695 91.746z"/>
  </g>
</svg>