<svg xmlns="http://www.w3.org/2000/svg" width="1024" height="1024" viewBox="0 0 1024 1024">
  <g transform="translate(-0.000, 0.000) scale(1.000)">
    <path stroke="#000" stroke-width="3.72" d="M967.255 42.809 713.542 67.252c-16.11 1.548-33.49 15.197-38.807 30.475l-162.37 466.2-163.167-466.24c-5.316-15.238-22.736-28.887-38.807-30.435L56.679 42.809c-16.071-1.547-24.681 9.523-19.245 24.76L356.62 955.092c5.476 15.198 23.055 27.578 39.204 27.578h248.475c2.897 0 5.317-.794 7.103-2.183a22.02 22.02 0 0 0 10.912-11.587l1.547-4.285L986.46 67.569c5.475-15.237-3.135-26.307-19.205-24.76z"/>
  </g>
</svg>