<svg xmlns="http://www.w3.org/2000/svg" width="1024" height="1024" viewBox="0 0 1024 1024">
  <g transform="translate(-15.008, -15.008) scale(1.030)">
    <path stroke="#000" stroke-width="3.748" d="M92.039 91.945v25.483c0 32.042 3.187 63.709 9.369 94.437h661.06c5.998-12.928 14.055-24.92 24.36-35.225l72.328-72.327c7.87-7.87 12.367-18.739 12.367-29.98 0-23.423-18.927-42.348-42.348-42.348H152c-33.167 0-59.961 26.794-59.961 59.96zm659.937 179.88H117.521c22.86 67.269 60.524 128.728 110.178 179.882h636.328l-88.441-117.86c-13.679-18.175-21.736-39.723-23.61-62.021zM328.507 530.78l218.105 128.35c15.364 8.994 29.606 20.05 42.16 32.418h337.09c3.747-18.364 5.62-37.289 5.62-56.402 0-43.095-9.93-85.254-28.668-123.48H298.527c9.743 6.746 19.674 13.117 29.98 19.113zm303.175 220.729c19.298 40.098 25.857 85.254 18.55 129.288l-11.056 66.893c-3.748 22.86 13.866 43.846 37.1 43.846 9.931 0 19.488-3.936 26.608-11.055l146.529-146.529c23.983-23.983 43.282-51.902 56.96-82.257h-274.69z"/>
  </g>
</svg>