<svg width="100" height="100" viewBox="0 0 100 100" xmlns="http://www.w3.org/2000/svg">
  <path d="M80.45687538748707 50.81037720885938C80.45687538748707 37.660097691239834 110.40480010135961 37.660097691239834 110.40480010135961 50.81037720885938C110.40480010135961 63.96065672647892 80.45687538748707 63.96065672647892 80.45687538748707 50.81037720885938ZM44.81223945469588 67.43499335831561C44.81223945469588 55.121258863570795 66.39855025253505 55.121258863570795 66.39855025253505 67.43499335831561C66.39855025253505 79.74872785306042 44.81223945469588 79.74872785306042 44.81223945469588 67.43499335831561ZM7.025840933438381 3.473191988830593C7.025840933438381 -12.153402698010709 35.86700315370378 -12.153402698010709 35.86700315370378 3.473191988830593C35.86700315370378 19.099786675671893 7.025840933438381 19.099786675671893 7.025840933438381 3.473191988830593ZM67.8304423113461 59.26554245797385C67.8304423113461 42.62119507212985 91.23558018905064 42.62119507212985 91.23558018905064 59.26554245797385C91.23558018905064 75.90988984381785 67.8304423113461 75.90988984381785 67.8304423113461 59.26554245797385ZM28.10840927204164 13.303498414902581C28.10840927204164 1.0142923159398656 54.952889159506725 1.0142923159398656 54.952889159506725 13.303498414902581C54.952889159506725 25.592704513865296 28.10840927204164 25.592704513865296 28.10840927204164 13.303498414902581ZM47.04384615288087 70.26723822270063C47.04384615288087 57.625055481130715 97.12174957498462 57.625055481130715 97.12174957498462 70.26723822270063C97.12174957498462 82.90942096427054 47.04384615288087 82.90942096427054 47.04384615288087 70.26723822270063ZM35.71639428279619 0.6195415423959405C35.71639428279619 -17.499598935920332 76.13196996889705 -17.499598935920332 76.13196996889705 0.6195415423959405C76.13196996889705 18.73868202071221 35.71639428279619 18.73868202071221 35.71639428279619 0.6195415423959405ZM62.03231118566026 45.74463478718273C62.03231118566026 25.16810196052644 117.35751138313307 25.16810196052644 117.35751138313307 45.74463478718273C117.35751138313307 66.32116761383902 62.03231118566026 66.32116761383902 62.03231118566026 45.74463478718273ZM69.47174489834308 73.52066127703722C69.47174489834308 56.32293805946493 120.19122221143098 56.32293805946493 120.19122221143098 73.52066127703722C120.19122221143098 90.71838449460951 69.47174489834308 90.71838449460951 69.47174489834308 73.52066127703722ZM19.608321700943616 8.640990475980159C19.608321700943616 -15.664655313709266 68.27351609182422 -15.664655313709266 68.27351609182422 8.640990475980159C68.27351609182422 32.94663626566958 19.608321700943616 32.94663626566958 19.608321700943616 8.640990475980159ZM-11.2250327397693 91.37887400739919C-11.2250327397693 73.63386472210985 14.172917763030611 73.63386472210985 14.172917763030611 91.37887400739919C14.172917763030611 109.12388329268853 -11.2250327397693 109.12388329268853 -11.2250327397693 91.37887400739919ZM-13.72878008266546 13.176186506165699C-13.72878008266546 -10.238343589713395 45.49606421537188 -10.238343589713395 45.49606421537188 13.176186506165699C45.49606421537188 36.59071660204479 -13.72878008266546 36.59071660204479 -13.72878008266546 13.176186506165699Z" fill="black" stroke="none" fill-rule="evenodd"/>
</svg>