<svg width="100" height="100" viewBox="0 0 100 100" xmlns="http://www.w3.org/2000/svg">
  <path d="M0.00 0.00h3.70v3.70h-3.7ZM0.00 3.70h3.70v3.70h-3.7ZM0.00 7.41h3.70v3.70h-3.7ZM3.70 0.00h3.70v3.70h-3.7ZM3.70 7.41h3.70v3.70h-3.7ZM7.41 0.00h3.70v3.70h-3.7ZM7.41 3.70h3.70v3.70h-3.7ZM7.41 7.41h3.70v3.70h-3.7ZM0.00 11.11h3.70v3.70h-3.7ZM0.00 14.81h3.70v3.70h-3.7ZM0.00 18.52h3.70v3.70h-3.7ZM3.70 11.11h3.70v3.70h-3.7ZM3.70 18.52h3.70v3.70h-3.7ZM7.41 11.11h3.70v3.70h-3.7ZM7.41 14.81h3.70v3.70h-3.7ZM7.41 18.52h3.70v3.70h-3.7ZM0.00 22.22h3.70v3.70h-3.7ZM0.00 25.93h3.70v3.70h-3.7ZM0.00 29.63h3.70v3.70h-3.7ZM3.70 22.22h3.70v3.70h-3.7ZM3.70 29.63h3.70v3.70h-3.7ZM7.41 22.22h3.70v3.70h-3.7ZM7.41 25.93h3.70v3.70h-3.7ZM7.41 29.63h3.70v3.70h-3.7ZM11.11 0.00h3.70v3.70h-3.7ZM11.11 3.70h3.70v3.70h-3.7ZM11.11 7.41h3.70v3.70h-3.7ZM14.81 0.00h3.70v3.70h-3.7ZM14.81 7.41h3.70v3.70h-3.7ZM18.52 0.00h3.70v3.70h-3.7ZM18.52 3.70h3.70v3.70h-3.7ZM18.52 7.41h3.70v3.70h-3.7ZM11.11 22.22h3.70v3.70h-3.7ZM11.11 25.93h3.70v3.70h-3.7ZM11.11 29.63h3.70v3.70h-3.7ZM14.81 22.22h3.70v3.70h-3.7ZM14.81 29.63h3.70v3.70h-3.7ZM18.52 22.22h3.70v3.70h-3.7ZM18.52 25.93h3.70v3.70h-3.7ZM18.52 29.63h3.70v3.70h-3.7ZM22.22 0.00h3.70v3.70h-3.7ZM22.22 3.70h3.70v3.70h-3.7ZM22.22 7.41h3.70v3.70h-3.7ZM25.93 0.00h3.70v3.70h-3.7ZM25.93 7.41h3.70v3.70h-3.7ZM29.63 0.00h3.70v3.70h-3.7ZM29.63 3.70h3.70v3.70h-3.7ZM29.63 7.41h3.70v3.70h-3.7ZM22.22 11.11h3.70v3.70h-3.7ZM22.22 14.81h3.70v3.70h-3.7ZM22.22 18.52h3.70v3.70h-3.7ZM25.93 11.11h3.70v3.70h-3.7ZM25.93 18.52h3.70v3.70h-3.7ZM29.63 11.11h3.70v3.70h-3.7ZM29.63 14.81h3.70v3.70h-3.7ZM29.63 18.52h3.70v3.70h-3.7ZM22.22 22.22h3.70v3.70h-3.7ZM22.22 25.93h3.70v3.70h-3.7ZM22.22 29.63h3.70v3.70h-3.7ZM25.93 22.22h3.70v3.70h-3.7ZM25.93 29.63h3.70v3.70h-3.7ZM29.63 22.22h3.70v3.70h-3.7ZM29.63 25.93h3.70v3.70h-3.7ZM29.63 29.63h3.70v3.70h-3.7ZM0.00 33.33h3.70v3.70h-3.7ZM0.00 37.04h3.70v3.70h-3.7ZM0.00 40.74h3.70v3.70h-3.7ZM3.70 33.33h3.70v3.70h-3.7ZM3.70 40.74h3.70v3.70h-3.7ZM7.41 33.33h3.70v3.70h-3.7ZM7.41 37.04h3.70v3.70h-3.7ZM7.41 40.74h3.70v3.70h-3.7ZM0.00 44.44h3.70v3.70h-3.7ZM0.00 48.15h3.70v3.70h-3.7ZM0.00 51.85h3.70v3.70h-3.7ZM3.70 44.44h3.70v3.70h-3.7ZM3.70 51.85h3.70v3.70h-3.7ZM7.41 44.44h3.70v3.70h-3.7ZM7.41 48.15h3.70v3.70h-3.7ZM7.41 51.85h3.70v3.70h-3.7ZM0.00 55.56h3.70v3.70h-3.7ZM0.00 59.26h3.70v3.70h-3.7ZM0.00 62.96h3.70v3.70h-3.7ZM3.70 55.56h3.70v3.70h-3.7ZM3.70 62.96h3.70v3.70h-3.7ZM7.41 55.56h3.70v3.70h-3.7ZM7.41 59.26h3.70v3.70h-3.7ZM7.41 62.96h3.70v3.70h-3.7ZM11.11 33.33h3.70v3.70h-3.7ZM11.11 37.04h3.70v3.70h-3.7ZM11.11 40.74h3.70v3.70h-3.7ZM14.81 33.33h3.70v3.70h-3.7ZM14.81 40.74h3.70v3.70h-3.7ZM18.52 33.33h3.70v3.70h-3.7ZM18.52 37.04h3.70v3.70h-3.7ZM18.52 40.74h3.70v3.70h-3.7ZM11.11 55.56h3.70v3.70h-3.7ZM11.11 59.26h3.70v3.70h-3.7ZM11.11 62.96h3.70v3.70h-3.7ZM14.81 55.56h3.70v3.70h-3.7ZM14.81 62.96h3.70v3.70h-3.7ZM18.52 55.56h3.70v3.70h-3.7ZM18.52 59.26h3.70v3.70h-3.7ZM18.52 62.96h3.70v3.70h-3.7ZM22.22 33.33h3.70v3.70h-3.7ZM22.22 37.04h3.70v3.70h-3.7ZM22.22 40.74h3.70v3.70h-3.7ZM25.93 33.33h3.70v3.70h-3.7ZM25.93 40.74h3.70v3.70h-3.7ZM29.63 33.33h3.70v3.70h-3.7ZM29.63 37.04h3.70v3.70h-3.7ZM29.63 40.74h3.70v3.70h-3.7ZM22.22 44.44h3.70v3.70h-3.7ZM22.22 48.15h3.70v3.70h-3.7ZM22.22 51.85h3.70v3.70h-3.7ZM25.93 44.44h3.70v3.70h-3.7ZM25.93 51.85h3.70v3.70h-3.7ZM29.63 44.44h3.70v3.70h-3.7ZM29.63 48.15h3.70v3.70h-3.7ZM29.63 51.85h3.70v3.70h-3.7ZM22.22 55.56h3.70v3.70h-3.7ZM22.22 59.26h3.70v3.70h-3.7ZM22.22 62.96h3.70v3.70h-3.7ZM25.93 55.56h3.70v3.70h-3.7ZM25.93 62.96h3.70v3.70h-3.7ZM29.63 55.56h3.70v3.70h-3.7ZM29.63 59.26h3.70v3.70h-3.7ZM29.63 62.96h3.70v3.70h-3.7ZM0.00 66.67h3.70v3.70h-3.7ZM0.00 70.37h3.70v3.70h-3.7ZM0.00 74.07h3.70v3.70h-3.7ZM3.70 66.67h3.70v3.70h-3.7ZM3.70 74.07h3.70v3.70h-3.7ZM7.41 66.67h3.70v3.70h-3.7ZM7.41 70.37h3.70v3.70h-3.7ZM7.41 74.07h3.70v3.70h-3.7ZM0.00 77.78h3.70v3.70h-3.7ZM0.00 81.48h3.70v3.70h-3.7ZM0.00 85.19h3.70v3.70h-3.7ZM3.70 77.78h3.70v3.70h-3.7ZM3.70 85.19h3.70v3.70h-3.7ZM7.41 77.78h3.70v3.70h-3.7ZM7.41 81.48h3.70v3.70h-3.7ZM7.41 85.19h3.70v3.70h-3.7ZM0.00 88.89h3.70v3.70h-3.7ZM0.00 92.59h3.70v3.70h-3.7ZM0.00 96.30h3.70v3.70h-3.7ZM3.70 88.89h3.70v3.70h-3.7ZM3.70 96.30h3.70v3.70h-3.7ZM7.41 88.89h3.70v3.70h-3.7ZM7.41 92.59h3.70v3.70h-3.7ZM7.41 96.30h3.70v3.70h-3.7ZM11.11 66.67h3.70v3.70h-3.7ZM11.11 70.37h3.70v3.70h-3.7ZM11.11 74.07h3.70v3.70h-3.7ZM14.81 66.67h3.70v3.70h-3.7ZM14.81 74.07h3.70v3.70h-3.7ZM18.52 66.67h3.70v3.70h-3.7ZM18.52 70.37h3.70v3.70h-3.7ZM18.52 74.07h3.70v3.70h-3.7ZM11.11 88.89h3.70v3.70h-3.7ZM11.11 92.59h3.70v3.70h-3.7ZM11.11 96.30h3.70v3.70h-3.7ZM14.81 88.89h3.70v3.70h-3.7ZM14.81 96.30h3.70v3.70h-3.7ZM18.52 88.89h3.70v3.70h-3.7ZM18.52 92.59h3.70v3.70h-3.7ZM18.52 96.30h3.70v3.70h-3.7ZM22.22 66.67h3.70v3.70h-3.7ZM22.22 70.37h3.70v3.70h-3.7ZM22.22 74.07h3.70v3.70h-3.7ZM25.93 66.67h3.70v3.70h-3.7ZM25.93 74.07h3.70v3.70h-3.7ZM29.63 66.67h3.70v3.70h-3.7ZM29.63 70.37h3.70v3.70h-3.7ZM29.63 74.07h3.70v3.70h-3.7ZM22.22 77.78h3.70v3.70h-3.7ZM22.22 81.48h3.70v3.70h-3.7ZM22.22 85.19h3.70v3.70h-3.7ZM25.93 77.78h3.70v3.70h-3.7ZM25.93 85.19h3.70v3.70h-3.7ZM29.63 77.78h3.70v3.70h-3.7ZM29.63 81.48h3.70v3.70h-3.7ZM29.63 85.19h3.70v3.70h-3.7ZM22.22 88.89h3.70v3.70h-3.7ZM22.22 92.59h3.70v3.70h-3.7ZM22.22 96.30h3.70v3.70h-3.7ZM25.93 88.89h3.70v3.70h-3.7ZM25.93 96.30h3.70v3.70h-3.7ZM29.63 88.89h3.70v3.70h-3.7ZM29.63 92.59h3.70v3.70h-3.7ZM29.63 96.30h3.70v3.70h-3.7ZM33.33 0.00h3.70v3.70h-3.7ZM33.33 3.70h3.70v3.70h-3.7ZM33.33 7.41h3.70v3.70h-3.7ZM37.04 0.00h3.70v3.70h-3.7ZM37.04 7.41h3.70v3.70h-3.7ZM40.74 0.00h3.70v3.70h-3.7ZM40.74 3.70h3.70v3.70h-3.7ZM40.74 7.41h3.70v3.70h-3.7ZM33.33 11.11h3.70v3.70h-3.7ZM33.33 14.81h3.70v3.70h-3.7ZM33.33 18.52h3.70v3.70h-3.7ZM37.04 11.11h3.70v3.70h-3.7ZM37.04 18.52h3.70v3.70h-3.7ZM40.74 11.11h3.70v3.70h-3.7ZM40.74 14.81h3.70v3.70h-3.7ZM40.74 18.52h3.70v3.70h-3.7ZM33.33 22.22h3.70v3.70h-3.7ZM33.33 25.93h3.70v3.70h-3.7ZM33.33 29.63h3.70v3.70h-3.7ZM37.04 22.22h3.70v3.70h-3.7ZM37.04 29.63h3.70v3.70h-3.7ZM40.74 22.22h3.70v3.70h-3.7ZM40.74 25.93h3.70v3.70h-3.7ZM40.74 29.63h3.70v3.70h-3.7ZM44.44 0.00h3.70v3.70h-3.7ZM44.44 3.70h3.70v3.70h-3.7ZM44.44 7.41h3.70v3.70h-3.7ZM48.15 0.00h3.70v3.70h-3.7ZM48.15 7.41h3.70v3.70h-3.7ZM51.85 0.00h3.70v3.70h-3.7ZM51.85 3.70h3.70v3.70h-3.7ZM51.85 7.41h3.70v3.70h-3.7ZM44.44 22.22h3.70v3.70h-3.7ZM44.44 25.93h3.70v3.70h-3.7ZM44.44 29.63h3.70v3.70h-3.7ZM48.15 22.22h3.70v3.70h-3.7ZM48.15 29.63h3.70v3.70h-3.7ZM51.85 22.22h3.70v3.70h-3.7ZM51.85 25.93h3.70v3.70h-3.7ZM51.85 29.63h3.70v3.70h-3.7ZM55.56 0.00h3.70v3.70h-3.7ZM55.56 3.70h3.70v3.70h-3.7ZM55.56 7.41h3.70v3.70h-3.7ZM59.26 0.00h3.70v3.70h-3.7ZM59.26 7.41h3.70v3.70h-3.7ZM62.96 0.00h3.70v3.70h-3.7ZM62.96 3.70h3.70v3.70h-3.7ZM62.96 7.41h3.70v3.70h-3.7ZM55.56 11.11h3.70v3.70h-3.7ZM55.56 14.81h3.70v3.70h-3.7ZM55.56 18.52h3.70v3.70h-3.7ZM59.26 11.11h3.70v3.70h-3.7ZM59.26 18.52h3.70v3.70h-3.7ZM62.96 11.11h3.70v3.70h-3.7ZM62.96 14.81h3.70v3.70h-3.7ZM62.96 18.52h3.70v3.70h-3.7ZM55.56 22.22h3.70v3.70h-3.7ZM55.56 25.93h3.70v3.70h-3.7ZM55.56 29.63h3.70v3.70h-3.7ZM59.26 22.22h3.70v3.70h-3.7ZM59.26 29.63h3.70v3.70h-3.7ZM62.96 22.22h3.70v3.70h-3.7ZM62.96 25.93h3.70v3.70h-3.7ZM62.96 29.63h3.70v3.70h-3.7ZM33.33 66.67h3.70v3.70h-3.7ZM33.33 70.37h3.70v3.70h-3.7ZM33.33 74.07h3.70v3.70h-3.7ZM37.04 66.67h3.70v3.70h-3.7ZM37.04 74.07h3.70v3.70h-3.7ZM40.74 66.67h3.70v3.70h-3.7ZM40.74 70.37h3.70v3.70h-3.7ZM40.74 74.07h3.70v3.70h-3.7ZM33.33 77.78h3.70v3.70h-3.7ZM33.33 81.48h3.70v3.70h-3.7ZM33.33 85.19h3.70v3.70h-3.7ZM37.04 77.78h3.70v3.70h-3.7ZM37.04 85.19h3.70v3.70h-3.7ZM40.74 77.78h3.70v3.70h-3.7ZM40.74 81.48h3.70v3.70h-3.7ZM40.74 85.19h3.70v3.70h-3.7ZM33.33 88.89h3.70v3.70h-3.7ZM33.33 92.59h3.70v3.70h-3.7ZM33.33 96.30h3.70v3.70h-3.7ZM37.04 88.89h3.70v3.70h-3.7ZM37.04 96.30h3.70v3.70h-3.7ZM40.74 88.89h3.70v3.70h-3.7ZM40.74 92.59h3.70v3.70h-3.7ZM40.74 96.30h3.70v3.70h-3.7ZM44.44 66.67h3.70v3.70h-3.7ZM44.44 70.37h3.70v3.70h-3.7ZM44.44 74.07h3.70v3.70h-3.7ZM48.15 66.67h3.70v3.70h-3.7ZM48.15 74.07h3.70v3.70h-3.7ZM51.85 66.67h3.70v3.70h-3.7ZM51.85 70.37h3.70v3.70h-3.7ZM51.85 74.07h3.70v3.70h-3.7ZM44.44 88.89h3.70v3.70h-3.7ZM44.44 92.59h3.70v3.70h-3.7ZM44.44 96.30h3.70v3.70h-3.7ZM48.15 88.89h3.70v3.70h-3.7ZM48.15 96.30h3.70v3.70h-3.7ZM51.85 88.89h3.70v3.70h-3.7ZM51.85 92.59h3.70v3.70h-3.7ZM51.85 96.30h3.70v3.70h-3.7ZM55.56 66.67h3.70v3.70h-3.7ZM55.56 70.37h3.70v3.70h-3.7ZM55.56 74.07h3.70v3.70h-3.7ZM59.26 66.67h3.70v3.70h-3.7ZM59.26 74.07h3.70v3.70h-3.7ZM62.96 66.67h3.70v3.70h-3.7ZM62.96 70.37h3.70v3.70h-3.7ZM62.96 74.07h3.70v3.70h-3.7ZM55.56 77.78h3.70v3.70h-3.7ZM55.56 81.48h3.70v3.70h-3.7ZM55.56 85.19h3.70v3.70h-3.7ZM59.26 77.78h3.70v3.70h-3.7ZM59.26 85.19h3.70v3.70h-3.7ZM62.96 77.78h3.70v3.70h-3.7ZM62.96 81.48h3.70v3.70h-3.7ZM62.96 85.19h3.70v3.70h-3.7ZM55.56 88.89h3.70v3.70h-3.7ZM55.56 92.59h3.70v3.70h-3.7ZM55.56 96.30h3.70v3.70h-3.7ZM59.26 88.89h3.70v3.70h-3.7ZM59.26 96.30h3.70v3.70h-3.7ZM62.96 88.89h3.70v3.70h-3.7ZM62.96 92.59h3.70v3.70h-3.7ZM62.96 96.30h3.70v3.70h-3.7ZM66.67 0.00h3.70v3.70h-3.7ZM66.67 3.70h3.70v3.70h-3.7ZM66.67 7.41h3.70v3.70h-3.7ZM70.37 0.00h3.70v3.70h-3.7ZM70.37 7.41h3.70v3.70h-3.7ZM74.07 0.00h3.70v3.70h-3.7ZM74.07 3.70h3.70v3.70h-3.7ZM74.07 7.41h3.70v3.70h-3.7ZM66.67 11.11h3.70v3.70h-3.7ZM66.67 14.81h3.70v3.70h-3.7ZM66.67 18.52h3.70v3.70h-3.7ZM70.37 11.11h3.70v3.70h-3.7ZM70.37 18.52h3.70v3.70h-3.7ZM74.07 11.11h3.70v3.70h-3.7ZM74.07 14.81h3.70v3.70h-3.7ZM74.07 18.52h3.70v3.70h-3.7ZM66.67 22.22h3.70v3.70h-3.7ZM66.67 25.93h3.70v3.70h-3.7ZM66.67 29.63h3.70v3.70h-3.7ZM70.37 22.22h3.70v3.70h-3.7ZM70.37 29.63h3.70v3.70h-3.7ZM74.07 22.22h3.70v3.70h-3.7ZM74.07 25.93h3.70v3.70h-3.7ZM74.07 29.63h3.70v3.70h-3.7ZM77.78 0.00h3.70v3.70h-3.7ZM77.78 3.70h3.70v3.70h-3.7ZM77.78 7.41h3.70v3.70h-3.7ZM81.48 0.00h3.70v3.70h-3.7ZM81.48 7.41h3.70v3.70h-3.7ZM85.19 0.00h3.70v3.70h-3.7ZM85.19 3.70h3.70v3.70h-3.7ZM85.19 7.41h3.70v3.70h-3.7ZM77.78 22.22h3.70v3.70h-3.7ZM77.78 25.93h3.70v3.70h-3.7ZM77.78 29.63h3.70v3.70h-3.7ZM81.48 22.22h3.70v3.70h-3.7ZM81.48 29.63h3.70v3.70h-3.7ZM85.19 22.22h3.70v3.70h-3.7ZM85.19 25.93h3.70v3.70h-3.7ZM85.19 29.63h3.70v3.70h-3.7ZM88.89 0.00h3.70v3.70h-3.7ZM88.89 3.70h3.70v3.70h-3.7ZM88.89 7.41h3.70v3.70h-3.7ZM92.59 0.00h3.70v3.70h-3.7ZM92.59 7.41h3.70v3.70h-3.7ZM96.30 0.00h3.70v3.70h-3.7ZM96.30 3.70h3.70v3.70h-3.7ZM96.30 7.41h3.70v3.70h-3.7ZM88.89 11.11h3.70v3.70h-3.7ZM88.89 14.81h3.70v3.70h-3.7ZM88.89 18.52h3.70v3.70h-3.7ZM92.59 11.11h3.70v3.70h-3.7ZM92.59 18.52h3.70v3.70h-3.7ZM96.30 11.11h3.70v3.70h-3.7ZM96.30 14.81h3.70v3.70h-3.7ZM96.30 18.52h3.70v3.70h-3.7ZM88.89 22.22h3.70v3.70h-3.7ZM88.89 25.93h3.70v3.70h-3.7ZM88.89 29.63h3.70v3.70h-3.7ZM92.59 22.22h3.70v3.70h-3.7ZM92.59 29.63h3.70v3.70h-3.7ZM96.30 22.22h3.70v3.70h-3.7ZM96.30 25.93h3.70v3.70h-3.7ZM96.30 29.63h3.70v3.70h-3.7ZM66.67 33.33h3.70v3.70h-3.7ZM66.67 37.04h3.70v3.70h-3.7ZM66.67 40.74h3.70v3.70h-3.7ZM70.37 33.33h3.70v3.70h-3.7ZM70.37 40.74h3.70v3.70h-3.7ZM74.07 33.33h3.70v3.70h-3.7ZM74.07 37.04h3.70v3.70h-3.7ZM74.07 40.74h3.70v3.70h-3.7ZM66.67 44.44h3.70v3.70h-3.7ZM66.67 48.15h3.70v3.70h-3.7ZM66.67 51.85h3.70v3.70h-3.7ZM70.37 44.44h3.70v3.70h-3.7ZM70.37 51.85h3.70v3.70h-3.7ZM74.07 44.44h3.70v3.70h-3.7ZM74.07 48.15h3.70v3.70h-3.7ZM74.07 51.85h3.70v3.70h-3.7ZM66.67 55.56h3.70v3.70h-3.7ZM66.67 59.26h3.70v3.70h-3.7ZM66.67 62.96h3.70v3.70h-3.7ZM70.37 55.56h3.70v3.70h-3.7ZM70.37 62.96h3.70v3.70h-3.7ZM74.07 55.56h3.70v3.70h-3.7ZM74.07 59.26h3.70v3.70h-3.7ZM74.07 62.96h3.70v3.70h-3.7ZM77.78 33.33h3.70v3.70h-3.7ZM77.78 37.04h3.70v3.70h-3.7ZM77.78 40.74h3.70v3.70h-3.7ZM81.48 33.33h3.70v3.70h-3.7ZM81.48 40.74h3.70v3.70h-3.7ZM85.19 33.33h3.70v3.70h-3.7ZM85.19 37.04h3.70v3.70h-3.7ZM85.19 40.74h3.70v3.70h-3.7ZM77.78 55.56h3.70v3.70h-3.7ZM77.78 59.26h3.70v3.70h-3.7ZM77.78 62.96h3.70v3.70h-3.7ZM81.48 55.56h3.70v3.70h-3.7ZM81.48 62.96h3.70v3.70h-3.7ZM85.19 55.56h3.70v3.70h-3.7ZM85.19 59.26h3.70v3.70h-3.7ZM85.19 62.96h3.70v3.70h-3.7ZM88.89 33.33h3.70v3.70h-3.7ZM88.89 37.04h3.70v3.70h-3.7ZM88.89 40.74h3.70v3.70h-3.7ZM92.59 33.33h3.70v3.70h-3.7ZM92.59 40.74h3.70v3.70h-3.7ZM96.30 33.33h3.70v3.70h-3.7ZM96.30 37.04h3.70v3.70h-3.7ZM96.30 40.74h3.70v3.70h-3.7ZM88.89 44.44h3.70v3.70h-3.7ZM88.89 48.15h3.70v3.70h-3.7ZM88.89 51.85h3.70v3.70h-3.7ZM92.59 44.44h3.70v3.70h-3.7ZM92.59 51.85h3.70v3.70h-3.7ZM96.30 44.44h3.70v3.70h-3.7ZM96.30 48.15h3.70v3.70h-3.7ZM96.30 51.85h3.70v3.70h-3.7ZM88.89 55.56h3.70v3.70h-3.7ZM88.89 59.26h3.70v3.70h-3.7ZM88.89 62.96h3.70v3.70h-3.7ZM92.59 55.56h3.70v3.70h-3.7ZM92.59 62.96h3.70v3.70h-3.7ZM96.30 55.56h3.70v3.70h-3.7ZM96.30 59.26h3.70v3.70h-3.7ZM96.30 62.96h3.70v3.70h-3.7ZM66.67 66.67h3.70v3.70h-3.7ZM66.67 70.37h3.70v3.70h-3.7ZM66.67 74.07h3.70v3.70h-3.7ZM70.37 66.67h3.70v3.70h-3.7ZM70.37 74.07h3.70v3.70h-3.7ZM74.07 66.67h3.70v3.70h-3.7ZM74.07 70.37h3.70v3.70h-3.7ZM74.07 74.07h3.70v3.70h-3.7ZM66.67 77.78h3.70v3.70h-3.7ZM66.67 81.48h3.70v3.70h-3.7ZM66.67 85.19h3.70v3.70h-3.7ZM70.37 77.78h3.70v3.70h-3.7ZM70.37 85.19h3.70v3.70h-3.7ZM74.07 77.78h3.70v3.70h-3.7ZM74.07 81.48h3.70v3.70h-3.7ZM74.07 85.19h3.70v3.70h-3.7ZM66.67 88.89h3.70v3.70h-3.7ZM66.67 92.59h3.70v3.70h-3.7ZM66.67 96.30h3.70v3.70h-3.7ZM70.37 88.89h3.70v3.70h-3.7ZM70.37 96.30h3.70v3.70h-3.7ZM74.07 88.89h3.70v3.70h-3.7ZM74.07 92.59h3.70v3.70h-3.7ZM74.07 96.30h3.70v3.70h-3.7ZM77.78 66.67h3.70v3.70h-3.7ZM77.78 70.37h3.70v3.70h-3.7ZM77.78 74.07h3.70v3.70h-3.7ZM81.48 66.67h3.70v3.70h-3.7ZM81.48 74.07h3.70v3.70h-3.7ZM85.19 66.67h3.70v3.70h-3.7ZM85.19 70.37h3.70v3.70h-3.7ZM85.19 74.07h3.70v3.70h-3.7ZM77.78 88.89h3.70v3.70h-3.7ZM77.78 92.59h3.70v3.70h-3.7ZM77.78 96.30h3.70v3.70h-3.7ZM81.48 88.89h3.70v3.70h-3.7ZM81.48 96.30h3.70v3.70h-3.7ZM85.19 88.89h3.70v3.70h-3.7ZM85.19 92.59h3.70v3.70h-3.7ZM85.19 96.30h3.70v3.70h-3.7ZM88.89 66.67h3.70v3.70h-3.7ZM88.89 70.37h3.70v3.70h-3.7ZM88.89 74.07h3.70v3.70h-3.7ZM92.59 66.67h3.70v3.70h-3.7ZM92.59 74.07h3.70v3.70h-3.7ZM96.30 66.67h3.70v3.70h-3.7ZM96.30 70.37h3.70v3.70h-3.7ZM96.30 74.07h3.70v3.70h-3.7ZM88.89 77.78h3.70v3.70h-3.7ZM88.89 81.48h3.70v3.70h-3.7ZM88.89 85.19h3.70v3.70h-3.7ZM92.59 77.78h3.70v3.70h-3.7ZM92.59 85.19h3.70v3.70h-3.7ZM96.30 77.78h3.70v3.70h-3.7ZM96.30 81.48h3.70v3.70h-3.7ZM96.30 85.19h3.70v3.70h-3.7ZM88.89 88.89h3.70v3.70h-3.7ZM88.89 92.59h3.70v3.70h-3.7ZM88.89 96.30h3.70v3.70h-3.7ZM92.59 88.89h3.70v3.70h-3.7ZM92.59 96.30h3.70v3.70h-3.7ZM96.30 88.89h3.70v3.70h-3.7ZM96.30 92.59h3.70v3.70h-3.7ZM96.30 96.30h3.70v3.70h-3.7Z" fill="black" stroke="none"/>
</svg>