<svg width="100" height="100" viewBox="0 0 100 100" xmlns="http://www.w3.org/2000/svg">
  <path d="M103.00 50.00L102.52 48.70L101.10 47.48L98.76 46.42L95.56 45.60L91.56 45.09L86.86 44.93L81.56 45.19L75.77 45.88L69.61 47.03L63.22 48.63L56.73 50.68L50.28 53.13L43.99 55.94L37.99 59.05L32.40 62.39L27.32 65.86L22.84 69.39L19.03 72.87L15.95 76.19L13.64 79.26L12.11 81.97L11.37 84.23L11.39 85.94L12.14 87.04L13.56 87.46L15.58 87.16L18.13 86.09L21.11 84.25L24.41 81.65L27.95 78.30L31.61 74.25L35.29 69.57L38.89 64.33L42.32 58.63L45.49 52.57L48.34 46.27L50.81 39.86L52.85 33.48L54.43 27.25L55.54 21.30L56.20 15.77L56.41 10.78L56.21 6.43L55.65 2.82L54.80 0.03L53.71 -1.87L52.47 -2.84L51.15 -2.86L49.85 -1.92L48.64 -0.05L47.60 2.71L46.81 6.32L46.33 10.68L46.21 15.71L46.50 21.30L47.22 27.33L48.39 33.67L50.00 40.19L52.03 46.75L54.46 53.22L57.22 59.47L60.25 65.38L63.49 70.83L66.84 75.73L70.20 79.98L73.49 83.53L76.60 86.32L79.42 88.31L81.86 89.51L83.83 89.92L85.24 89.56L86.03 88.47L86.14 86.73L85.51 84.39L84.14 81.56L82.01 78.32L79.13 74.78L75.53 71.03L71.27 67.20L66.42 63.38L61.04 59.67L55.26 56.16L49.17 52.93L42.89 50.06L36.56 47.59L30.31 45.57L24.26 44.02L18.55 42.95L13.31 42.35L8.65 42.20L4.66 42.46L1.46 43.07L-0.90 43.97L-2.36 45.10L-2.87 46.37L-2.44 47.71L-1.05 49.02L1.26 50.23L4.44 51.26L8.43 52.04L13.14 52.50L18.48 52.59L24.33 52.28L30.57 51.54L37.07 50.37L43.69 48.76L50.29 46.74L56.75 44.36L62.93 41.66L68.72 38.71L74.00 35.58L78.69 32.38L82.69 29.18L85.95 26.08L88.43 23.20L90.10 20.62L90.95 18.45L91.00 16.76L90.29 15.64L88.87 15.16L86.80 15.36L84.15 16.29L81.03 17.95L77.53 20.36L73.76 23.49L69.82 27.31L65.82 31.76L61.87 36.76L58.06 42.24L54.49 48.08L51.23 54.17L48.34 60.39L45.89 66.62L43.90 72.71L42.40 78.55L41.39 84.00L40.86 88.93L40.77 93.25L41.10 96.85L41.77 99.64L42.74 101.56L43.92 102.57L45.24 102.63L46.60 101.74L47.94 99.90L49.16 97.17L50.19 93.59L50.96 89.23L51.40 84.18L51.49 78.56L51.16 72.47L50.42 66.05L49.24 59.43L47.65 52.74L45.66 46.12L43.33 39.71L40.70 33.62L37.84 27.99L34.83 22.90L31.77 18.46L28.74 14.73L25.85 11.78L23.19 9.63L20.86 8.31L18.95 7.81L17.54 8.12L16.71 9.18L16.52 10.95L17.02 13.36L18.23 16.31L20.17 19.71L22.83 23.46L26.20 27.46L30.21 31.58L34.82 35.73L39.95 39.80L45.49 43.69L51.36 47.32L57.43 50.60L63.57 53.48L69.66 55.91L75.57 57.85L81.17 59.29L86.33 60.23L90.94 60.68L94.89 60.68L98.09 60.27L100.46 59.51L101.95 58.48L102.50 57.23L102.10 55.87L100.76 54.46L98.49 53.10L95.35 51.86L91.38 50.82L86.67 50.04L81.32 49.60L75.43 49.52L69.14 49.84L62.56 50.59L55.85 51.75L49.12 53.32L42.52 55.27L36.18 57.55L30.23 60.10L24.77 62.86L19.91 65.74L15.73 68.65L12.30 71.50L9.68 74.19L7.88 76.63L6.92 78.72L6.79 80.37L7.46 81.51L8.89 82.06L11.01 81.96L13.74 81.19L16.99 79.70L20.67 77.51L24.67 74.61L28.87 71.04L33.18 66.85L37.46 62.11L41.64 56.89L45.60 51.29L49.26 45.43L52.55 39.42L55.40 33.38L57.79 27.45L59.66 21.75L61.02 16.41L61.87 11.55L62.23 7.29L62.13 3.72L61.63 0.93L60.79 -1.01L59.66 -2.05L58.35 -2.15L56.92 -1.30L55.46 0.48L54.06 3.17L52.79 6.72L51.73 11.06L50.95 16.09L50.49 21.73L50.41 27.84L50.73 34.32L51.46 41.01L52.61 47.80L54.15 54.53L56.05 61.08L58.27 67.31L60.74 73.11L63.38 78.36L66.13 82.97L68.89 86.85L71.56 89.96L74.06 92.24L76.28 93.68L78.13 94.26L79.52 94.01L80.39 92.96L80.67 91.17L80.31 88.70L79.27 85.65L77.53 82.09L75.10 78.15L71.99 73.91L68.24 69.51L63.90 65.05L59.04 60.64L53.76 56.38L48.15 52.37L42.32 48.69L36.39 45.41L30.48 42.59L24.73 40.27L19.27 38.48L14.21 37.21L9.67 36.46L5.77 36.21L2.59 36.42L0.22 37.03L-1.29 37.98L-1.87 39.19L-1.52 40.59L-0.23 42.09L1.98 43.61L5.08 45.06L9.01 46.36L13.70 47.45L19.04 48.25L24.93 48.72L31.25 48.82L37.87 48.51L44.66 47.79L51.48 46.68L58.19 45.17L64.65 43.32L70.75 41.18L76.36 38.80L81.37 36.26L85.70 33.64L89.28 31.04L92.04 28.55L93.96 26.25L95.01 24.25L95.21 22.64L94.58 21.49L93.15 20.87L90.99 20.85L88.18 21.47L84.80 22.76L80.96 24.73L76.75 27.38L72.30 30.68L67.71 34.59L63.10 39.05L58.58 43.99L54.26 49.31L50.21 54.92L46.53 60.69L43.29 66.51L40.52 72.26L38.28 77.80L36.58 83.01L35.43 87.77L34.80 91.97L34.67 95.50L35.00 98.27L35.73 100.22L36.79 101.28L38.11 101.42L39.60 100.63L41.18 98.90L42.77 96.27L44.27 92.77L45.62 88.48L46.74 83.47L47.57 77.85L48.06 71.73L48.17 65.24L47.89 58.49L47.20 51.64L46.11 44.82L44.65 38.17L42.86 31.82L40.78 25.89L38.50 20.50L36.07 15.75L33.59 11.72L31.15 8.48L28.83 6.07L26.73 4.54L24.94 3.87L23.55 4.07L22.64 5.10L22.27 6.91L22.49 9.43L23.35 12.58L24.87 16.28L27.06 20.40L29.90 24.86L33.37 29.52L37.42 34.27L41.98 39.01L46.97 43.62L52.31 48.00L57.88 52.05L63.57 55.71L69.26 58.91L74.82 61.60L80.13 63.74L85.07 65.33L89.51 66.36L93.35 66.85L96.50 66.84L98.86 66.37L100.38 65.51L101.00 64.33L100.70 62.90L99.47 61.30L97.32 59.63L94.28 57.97L90.40 56.40L85.77 55.01L80.46 53.85L74.59 52.99L68.27 52.47L61.63 52.34L54.80 52.60L47.92 53.26L41.13 54.31L34.57 55.72L28.36 57.45L22.63 59.45L17.49 61.64L13.02 63.95L9.32 66.30L6.43 68.59L4.40 70.73L3.26 72.64L3.00 74.22L3.60 75.39L5.02 76.07L7.21 76.21L10.10 75.76L13.59 74.67L17.58 72.94L21.98 70.56L26.67 67.54L31.52 63.93L36.43 59.77L41.28 55.14L45.95 50.11L50.36 44.79L54.41 39.28L58.03 33.69L61.16 28.16L63.75 22.80L65.78 17.74L67.24 13.10L68.12 8.99L68.47 5.51L68.31 2.76L67.69 0.81L66.69 -0.27L65.37 -0.46L63.82 0.28L62.11 1.95L60.35 4.51L58.60 7.94L56.97 12.17L55.51 17.12L54.31 22.70L53.41 28.80L52.87 35.29L52.70 42.04L52.94 48.93L53.57 55.80L54.58 62.53L55.94 68.97L57.61 75.01L59.53 80.51L61.62 85.39L63.82 89.54L66.03 92.90L68.17 95.41L70.14 97.04L71.86 97.78L73.24 97.63L74.20 96.62L74.67 94.80L74.59 92.23L73.92 88.99L72.63 85.17L70.70 80.88L68.14 76.22L64.97 71.32L61.24 66.29L56.99 61.25L52.31 56.32L47.28 51.59L41.99 47.17L36.57 43.15L31.12 39.59L25.76 36.55L20.63 34.07L15.84 32.18L11.50 30.87L7.74 30.14L4.64 29.96L2.29 30.29L0.76 31.06L0.11 32.22L0.36 33.68L1.53 35.37L3.61 37.19L6.57 39.06L10.37 40.89L14.93 42.60L20.18 44.11L26.00 45.36L32.29 46.30L38.93 46.88L45.76 47.07L52.67 46.87L59.51 46.28L66.14 45.31L72.43 43.99L78.26 42.39L83.52 40.55L88.09 38.55L91.91 36.47L94.90 34.38L97.02 32.39L98.25 30.58L98.57 29.04L98.01 27.86L96.59 27.10L94.37 26.83L91.43 27.12L87.84 27.99L83.70 29.47L79.13 31.58L74.23 34.29L69.12 37.59L63.94 41.42L58.78 45.73L53.78 50.44L49.03 55.45L44.62 60.68L40.65 65.99L37.17 71.29L34.24 76.44L31.89 81.33L30.15 85.84L29.01 89.85L28.46 93.26L28.46 95.97L28.96 97.92L29.91 99.02L31.23 99.25L32.84 98.57L34.67 96.98L36.61 94.50L38.59 91.15L40.51 87.01L42.30 82.13L43.88 76.62L45.18 70.58L46.16 64.12L46.77 57.38L47.00 50.49L46.83 43.59L46.27 36.82L45.34 30.32L44.08 24.21L42.54 18.61L40.78 13.64L38.87 9.38L36.89 5.92L34.94 3.32L33.09 1.60L31.44 0.79L30.07 0.89L29.07 1.88L28.50 3.70L28.42 6.31L28.90 9.63L29.95 13.56L31.61 18.00L33.87 22.84L36.72 27.97L40.12 33.25L44.03 38.57L48.38 43.82L53.09 48.87L58.07 53.63L63.20 58.00L68.39 61.90L73.51 65.28L78.45 68.07L83.08 70.27L87.28 71.84L90.96 72.79L94.00 73.16L96.32 72.97L97.86 72.28L98.55 71.15L98.35 69.65L97.25 67.88L95.26 65.90L92.38 63.83L88.68 61.74L84.21 59.72L79.04 57.86L73.29 56.22L67.06 54.86L60.47 53.84L53.65 53.19L46.74 52.93L39.88 53.07L33.22 53.59L26.87 54.48L20.97 55.69L15.64 57.17L10.97 58.86L7.06 60.68L3.97 62.55L1.77 64.38L0.47 66.09L0.09 67.59L0.62 68.80L2.02 69.63L4.26 70.02L7.26 69.92L10.93 69.27L15.19 68.04L19.93 66.23L25.02 63.84L30.35 60.87L35.79 57.39L41.23 53.42L46.54 49.06L51.62 44.37L56.36 39.46L60.67 34.42L64.48 29.38L67.73 24.46L70.37 19.76L72.39 15.41L73.78 11.51L74.53 8.19L74.69 5.52L74.30 3.58L73.40 2.46L72.08 2.19L70.40 2.80L68.46 4.31L66.34 6.70L64.13 9.94L61.93 13.98L59.81 18.76L57.87 24.18L56.16 30.15L54.75 36.54L53.69 43.23Z" fill="black" stroke="none" fill-rule="evenodd"/>
</svg>