<svg width="100" height="100" viewBox="0 0 100 100" xmlns="http://www.w3.org/2000/svg">
  <path d="M25.00 25.00h50.00v50.00h-50ZM12.50 12.50h25.00v25.00h-25ZM6.25 6.25h12.50v12.50h-12.5ZM3.13 3.13h6.25v6.25h-6.25ZM1.56 1.56h3.13v3.13h-3.13ZM0.78 0.78h1.56v1.56h-1.56ZM3.91 0.78h1.56v1.56h-1.56ZM0.78 3.91h1.56v1.56h-1.56ZM3.91 3.91h1.56v1.56h-1.56ZM7.81 1.56h3.13v3.13h-3.13ZM7.03 0.78h1.56v1.56h-1.56ZM10.16 0.78h1.56v1.56h-1.56ZM7.03 3.91h1.56v1.56h-1.56ZM10.16 3.91h1.56v1.56h-1.56ZM1.56 7.81h3.13v3.13h-3.13ZM0.78 7.03h1.56v1.56h-1.56ZM3.91 7.03h1.56v1.56h-1.56ZM0.78 10.16h1.56v1.56h-1.56ZM3.91 10.16h1.56v1.56h-1.56ZM7.81 7.81h3.13v3.13h-3.13ZM7.03 7.03h1.56v1.56h-1.56ZM10.16 7.03h1.56v1.56h-1.56ZM7.03 10.16h1.56v1.56h-1.56ZM10.16 10.16h1.56v1.56h-1.56ZM15.63 3.13h6.25v6.25h-6.25ZM14.06 1.56h3.13v3.13h-3.13ZM13.28 0.78h1.56v1.56h-1.56ZM16.41 0.78h1.56v1.56h-1.56ZM13.28 3.91h1.56v1.56h-1.56ZM16.41 3.91h1.56v1.56h-1.56ZM20.31 1.56h3.13v3.13h-3.13ZM19.53 0.78h1.56v1.56h-1.56ZM22.66 0.78h1.56v1.56h-1.56ZM19.53 3.91h1.56v1.56h-1.56ZM22.66 3.91h1.56v1.56h-1.56ZM14.06 7.81h3.13v3.13h-3.13ZM13.28 7.03h1.56v1.56h-1.56ZM16.41 7.03h1.56v1.56h-1.56ZM13.28 10.16h1.56v1.56h-1.56ZM16.41 10.16h1.56v1.56h-1.56ZM20.31 7.81h3.13v3.13h-3.13ZM19.53 7.03h1.56v1.56h-1.56ZM22.66 7.03h1.56v1.56h-1.56ZM19.53 10.16h1.56v1.56h-1.56ZM22.66 10.16h1.56v1.56h-1.56ZM3.13 15.63h6.25v6.25h-6.25ZM1.56 14.06h3.13v3.13h-3.13ZM0.78 13.28h1.56v1.56h-1.56ZM3.91 13.28h1.56v1.56h-1.56ZM0.78 16.41h1.56v1.56h-1.56ZM3.91 16.41h1.56v1.56h-1.56ZM7.81 14.06h3.13v3.13h-3.13ZM7.03 13.28h1.56v1.56h-1.56ZM10.16 13.28h1.56v1.56h-1.56ZM7.03 16.41h1.56v1.56h-1.56ZM10.16 16.41h1.56v1.56h-1.56ZM1.56 20.31h3.13v3.13h-3.13ZM0.78 19.53h1.56v1.56h-1.56ZM3.91 19.53h1.56v1.56h-1.56ZM0.78 22.66h1.56v1.56h-1.56ZM3.91 22.66h1.56v1.56h-1.56ZM7.81 20.31h3.13v3.13h-3.13ZM7.03 19.53h1.56v1.56h-1.56ZM10.16 19.53h1.56v1.56h-1.56ZM7.03 22.66h1.56v1.56h-1.56ZM10.16 22.66h1.56v1.56h-1.56ZM15.63 15.63h6.25v6.25h-6.25ZM14.06 14.06h3.13v3.13h-3.13ZM13.28 13.28h1.56v1.56h-1.56ZM16.41 13.28h1.56v1.56h-1.56ZM13.28 16.41h1.56v1.56h-1.56ZM16.41 16.41h1.56v1.56h-1.56ZM20.31 14.06h3.13v3.13h-3.13ZM19.53 13.28h1.56v1.56h-1.56ZM22.66 13.28h1.56v1.56h-1.56ZM19.53 16.41h1.56v1.56h-1.56ZM22.66 16.41h1.56v1.56h-1.56ZM14.06 20.31h3.13v3.13h-3.13ZM13.28 19.53h1.56v1.56h-1.56ZM16.41 19.53h1.56v1.56h-1.56ZM13.28 22.66h1.56v1.56h-1.56ZM16.41 22.66h1.56v1.56h-1.56ZM20.31 20.31h3.13v3.13h-3.13ZM19.53 19.53h1.56v1.56h-1.56ZM22.66 19.53h1.56v1.56h-1.56ZM19.53 22.66h1.56v1.56h-1.56ZM22.66 22.66h1.56v1.56h-1.56ZM31.25 6.25h12.50v12.50h-12.5ZM28.13 3.13h6.25v6.25h-6.25ZM26.56 1.56h3.13v3.13h-3.13ZM25.78 0.78h1.56v1.56h-1.56ZM28.91 0.78h1.56v1.56h-1.56ZM25.78 3.91h1.56v1.56h-1.56ZM28.91 3.91h1.56v1.56h-1.56ZM32.81 1.56h3.13v3.13h-3.13ZM32.03 0.78h1.56v1.56h-1.56ZM35.16 0.78h1.56v1.56h-1.56ZM32.03 3.91h1.56v1.56h-1.56ZM35.16 3.91h1.56v1.56h-1.56ZM26.56 7.81h3.13v3.13h-3.13ZM25.78 7.03h1.56v1.56h-1.56ZM28.91 7.03h1.56v1.56h-1.56ZM25.78 10.16h1.56v1.56h-1.56ZM28.91 10.16h1.56v1.56h-1.56ZM32.81 7.81h3.13v3.13h-3.13ZM32.03 7.03h1.56v1.56h-1.56ZM35.16 7.03h1.56v1.56h-1.56ZM32.03 10.16h1.56v1.56h-1.56ZM35.16 10.16h1.56v1.56h-1.56ZM40.63 3.13h6.25v6.25h-6.25ZM39.06 1.56h3.13v3.13h-3.13ZM38.28 0.78h1.56v1.56h-1.56ZM41.41 0.78h1.56v1.56h-1.56ZM38.28 3.91h1.56v1.56h-1.56ZM41.41 3.91h1.56v1.56h-1.56ZM45.31 1.56h3.13v3.13h-3.13ZM44.53 0.78h1.56v1.56h-1.56ZM47.66 0.78h1.56v1.56h-1.56ZM44.53 3.91h1.56v1.56h-1.56ZM47.66 3.91h1.56v1.56h-1.56ZM39.06 7.81h3.13v3.13h-3.13ZM38.28 7.03h1.56v1.56h-1.56ZM41.41 7.03h1.56v1.56h-1.56ZM38.28 10.16h1.56v1.56h-1.56ZM41.41 10.16h1.56v1.56h-1.56ZM45.31 7.81h3.13v3.13h-3.13ZM44.53 7.03h1.56v1.56h-1.56ZM47.66 7.03h1.56v1.56h-1.56ZM44.53 10.16h1.56v1.56h-1.56ZM47.66 10.16h1.56v1.56h-1.56ZM28.13 15.63h6.25v6.25h-6.25ZM26.56 14.06h3.13v3.13h-3.13ZM25.78 13.28h1.56v1.56h-1.56ZM28.91 13.28h1.56v1.56h-1.56ZM25.78 16.41h1.56v1.56h-1.56ZM28.91 16.41h1.56v1.56h-1.56ZM32.81 14.06h3.13v3.13h-3.13ZM32.03 13.28h1.56v1.56h-1.56ZM35.16 13.28h1.56v1.56h-1.56ZM32.03 16.41h1.56v1.56h-1.56ZM35.16 16.41h1.56v1.56h-1.56ZM26.56 20.31h3.13v3.13h-3.13ZM25.78 19.53h1.56v1.56h-1.56ZM28.91 19.53h1.56v1.56h-1.56ZM25.78 22.66h1.56v1.56h-1.56ZM28.91 22.66h1.56v1.56h-1.56ZM32.81 20.31h3.13v3.13h-3.13ZM32.03 19.53h1.56v1.56h-1.56ZM35.16 19.53h1.56v1.56h-1.56ZM32.03 22.66h1.56v1.56h-1.56ZM35.16 22.66h1.56v1.56h-1.56ZM40.63 15.63h6.25v6.25h-6.25ZM39.06 14.06h3.13v3.13h-3.13ZM38.28 13.28h1.56v1.56h-1.56ZM41.41 13.28h1.56v1.56h-1.56ZM38.28 16.41h1.56v1.56h-1.56ZM41.41 16.41h1.56v1.56h-1.56ZM45.31 14.06h3.13v3.13h-3.13ZM44.53 13.28h1.56v1.56h-1.56ZM47.66 13.28h1.56v1.56h-1.56ZM44.53 16.41h1.56v1.56h-1.56ZM47.66 16.41h1.56v1.56h-1.56ZM39.06 20.31h3.13v3.13h-3.13ZM38.28 19.53h1.56v1.56h-1.56ZM41.41 19.53h1.56v1.56h-1.56ZM38.28 22.66h1.56v1.56h-1.56ZM41.41 22.66h1.56v1.56h-1.56ZM45.31 20.31h3.13v3.13h-3.13ZM44.53 19.53h1.56v1.56h-1.56ZM47.66 19.53h1.56v1.56h-1.56ZM44.53 22.66h1.56v1.56h-1.56ZM47.66 22.66h1.56v1.56h-1.56ZM6.25 31.25h12.50v12.50h-12.5ZM3.13 28.13h6.25v6.25h-6.25ZM1.56 26.56h3.13v3.13h-3.13ZM0.78 25.78h1.56v1.56h-1.56ZM3.91 25.78h1.56v1.56h-1.56ZM0.78 28.91h1.56v1.56h-1.56ZM3.91 28.91h1.56v1.56h-1.56ZM7.81 26.56h3.13v3.13h-3.13ZM7.03 25.78h1.56v1.56h-1.56ZM10.16 25.78h1.56v1.56h-1.56ZM7.03 28.91h1.56v1.56h-1.56ZM10.16 28.91h1.56v1.56h-1.56ZM1.56 32.81h3.13v3.13h-3.13ZM0.78 32.03h1.56v1.56h-1.56ZM3.91 32.03h1.56v1.56h-1.56ZM0.78 35.16h1.56v1.56h-1.56ZM3.91 35.16h1.56v1.56h-1.56ZM7.81 32.81h3.13v3.13h-3.13ZM7.03 32.03h1.56v1.56h-1.56ZM10.16 32.03h1.56v1.56h-1.56ZM7.03 35.16h1.56v1.56h-1.56ZM10.16 35.16h1.56v1.56h-1.56ZM15.63 28.13h6.25v6.25h-6.25ZM14.06 26.56h3.13v3.13h-3.13ZM13.28 25.78h1.56v1.56h-1.56ZM16.41 25.78h1.56v1.56h-1.56ZM13.28 28.91h1.56v1.56h-1.56ZM16.41 28.91h1.56v1.56h-1.56ZM20.31 26.56h3.13v3.13h-3.13ZM19.53 25.78h1.56v1.56h-1.56ZM22.66 25.78h1.56v1.56h-1.56ZM19.53 28.91h1.56v1.56h-1.56ZM22.66 28.91h1.56v1.56h-1.56ZM14.06 32.81h3.13v3.13h-3.13ZM13.28 32.03h1.56v1.56h-1.56ZM16.41 32.03h1.56v1.56h-1.56ZM13.28 35.16h1.56v1.56h-1.56ZM16.41 35.16h1.56v1.56h-1.56ZM20.31 32.81h3.13v3.13h-3.13ZM19.53 32.03h1.56v1.56h-1.56ZM22.66 32.03h1.56v1.56h-1.56ZM19.53 35.16h1.56v1.56h-1.56ZM22.66 35.16h1.56v1.56h-1.56ZM3.13 40.63h6.25v6.25h-6.25ZM1.56 39.06h3.13v3.13h-3.13ZM0.78 38.28h1.56v1.56h-1.56ZM3.91 38.28h1.56v1.56h-1.56ZM0.78 41.41h1.56v1.56h-1.56ZM3.91 41.41h1.56v1.56h-1.56ZM7.81 39.06h3.13v3.13h-3.13ZM7.03 38.28h1.56v1.56h-1.56ZM10.16 38.28h1.56v1.56h-1.56ZM7.03 41.41h1.56v1.56h-1.56ZM10.16 41.41h1.56v1.56h-1.56ZM1.56 45.31h3.13v3.13h-3.13ZM0.78 44.53h1.56v1.56h-1.56ZM3.91 44.53h1.56v1.56h-1.56ZM0.78 47.66h1.56v1.56h-1.56ZM3.91 47.66h1.56v1.56h-1.56ZM7.81 45.31h3.13v3.13h-3.13ZM7.03 44.53h1.56v1.56h-1.56ZM10.16 44.53h1.56v1.56h-1.56ZM7.03 47.66h1.56v1.56h-1.56ZM10.16 47.66h1.56v1.56h-1.56ZM15.63 40.63h6.25v6.25h-6.25ZM14.06 39.06h3.13v3.13h-3.13ZM13.28 38.28h1.56v1.56h-1.56ZM16.41 38.28h1.56v1.56h-1.56ZM13.28 41.41h1.56v1.56h-1.56ZM16.41 41.41h1.56v1.56h-1.56ZM20.31 39.06h3.13v3.13h-3.13ZM19.53 38.28h1.56v1.56h-1.56ZM22.66 38.28h1.56v1.56h-1.56ZM19.53 41.41h1.56v1.56h-1.56ZM22.66 41.41h1.56v1.56h-1.56ZM14.06 45.31h3.13v3.13h-3.13ZM13.28 44.53h1.56v1.56h-1.56ZM16.41 44.53h1.56v1.56h-1.56ZM13.28 47.66h1.56v1.56h-1.56ZM16.41 47.66h1.56v1.56h-1.56ZM20.31 45.31h3.13v3.13h-3.13ZM19.53 44.53h1.56v1.56h-1.56ZM22.66 44.53h1.56v1.56h-1.56ZM19.53 47.66h1.56v1.56h-1.56ZM22.66 47.66h1.56v1.56h-1.56ZM31.25 31.25h12.50v12.50h-12.5ZM28.13 28.13h6.25v6.25h-6.25ZM26.56 26.56h3.13v3.13h-3.13ZM25.78 25.78h1.56v1.56h-1.56ZM28.91 25.78h1.56v1.56h-1.56ZM25.78 28.91h1.56v1.56h-1.56ZM28.91 28.91h1.56v1.56h-1.56ZM32.81 26.56h3.13v3.13h-3.13ZM32.03 25.78h1.56v1.56h-1.56ZM35.16 25.78h1.56v1.56h-1.56ZM32.03 28.91h1.56v1.56h-1.56ZM35.16 28.91h1.56v1.56h-1.56ZM26.56 32.81h3.13v3.13h-3.13ZM25.78 32.03h1.56v1.56h-1.56ZM28.91 32.03h1.56v1.56h-1.56ZM25.78 35.16h1.56v1.56h-1.56ZM28.91 35.16h1.56v1.56h-1.56ZM32.81 32.81h3.13v3.13h-3.13ZM32.03 32.03h1.56v1.56h-1.56ZM35.16 32.03h1.56v1.56h-1.56ZM32.03 35.16h1.56v1.56h-1.56ZM35.16 35.16h1.56v1.56h-1.56ZM40.63 28.13h6.25v6.25h-6.25ZM39.06 26.56h3.13v3.13h-3.13ZM38.28 25.78h1.56v1.56h-1.56ZM41.41 25.78h1.56v1.56h-1.56ZM38.28 28.91h1.56v1.56h-1.56ZM41.41 28.91h1.56v1.56h-1.56ZM45.31 26.56h3.13v3.13h-3.13ZM44.53 25.78h1.56v1.56h-1.56ZM47.66 25.78h1.56v1.56h-1.56ZM44.53 28.91h1.56v1.56h-1.56ZM47.66 28.91h1.56v1.56h-1.56ZM39.06 32.81h3.13v3.13h-3.13ZM38.28 32.03h1.56v1.56h-1.56ZM41.41 32.03h1.56v1.56h-1.56ZM38.28 35.16h1.56v1.56h-1.56ZM41.41 35.16h1.56v1.56h-1.56ZM45.31 32.81h3.13v3.13h-3.13ZM44.53 32.03h1.56v1.56h-1.56ZM47.66 32.03h1.56v1.56h-1.56ZM44.53 35.16h1.56v1.56h-1.56ZM47.66 35.16h1.56v1.56h-1.56ZM28.13 40.63h6.25v6.25h-6.25ZM26.56 39.06h3.13v3.13h-3.13ZM25.78 38.28h1.56v1.56h-1.56ZM28.91 38.28h1.56v1.56h-1.56ZM25.78 41.41h1.56v1.56h-1.56ZM28.91 41.41h1.56v1.56h-1.56ZM32.81 39.06h3.13v3.13h-3.13ZM32.03 38.28h1.56v1.56h-1.56ZM35.16 38.28h1.56v1.56h-1.56ZM32.03 41.41h1.56v1.56h-1.56ZM35.16 41.41h1.56v1.56h-1.56ZM26.56 45.31h3.13v3.13h-3.13ZM25.78 44.53h1.56v1.56h-1.56ZM28.91 44.53h1.56v1.56h-1.56ZM25.78 47.66h1.56v1.56h-1.56ZM28.91 47.66h1.56v1.56h-1.56ZM32.81 45.31h3.13v3.13h-3.13ZM32.03 44.53h1.56v1.56h-1.56ZM35.16 44.53h1.56v1.56h-1.56ZM32.03 47.66h1.56v1.56h-1.56ZM35.16 47.66h1.56v1.56h-1.56ZM40.63 40.63h6.25v6.25h-6.25ZM39.06 39.06h3.13v3.13h-3.13ZM38.28 38.28h1.56v1.56h-1.56ZM41.41 38.28h1.56v1.56h-1.56ZM38.28 41.41h1.56v1.56h-1.56ZM41.41 41.41h1.56v1.56h-1.56ZM45.31 39.06h3.13v3.13h-3.13ZM44.53 38.28h1.56v1.56h-1.56ZM47.66 38.28h1.56v1.56h-1.56ZM44.53 41.41h1.56v1.56h-1.56ZM47.66 41.41h1.56v1.56h-1.56ZM39.06 45.31h3.13v3.13h-3.13ZM38.28 44.53h1.56v1.56h-1.56ZM41.41 44.53h1.56v1.56h-1.56ZM38.28 47.66h1.56v1.56h-1.56ZM41.41 47.66h1.56v1.56h-1.56ZM45.31 45.31h3.13v3.13h-3.13ZM44.53 44.53h1.56v1.56h-1.56ZM47.66 44.53h1.56v1.56h-1.56ZM44.53 47.66h1.56v1.56h-1.56ZM47.66 47.66h1.56v1.56h-1.56ZM62.50 12.50h25.00v25.00h-25ZM56.25 6.25h12.50v12.50h-12.5ZM53.13 3.13h6.25v6.25h-6.25ZM51.56 1.56h3.13v3.13h-3.13ZM50.78 0.78h1.56v1.56h-1.56ZM53.91 0.78h1.56v1.56h-1.56ZM50.78 3.91h1.56v1.56h-1.56ZM53.91 3.91h1.56v1.56h-1.56ZM57.81 1.56h3.13v3.13h-3.13ZM57.03 0.78h1.56v1.56h-1.56ZM60.16 0.78h1.56v1.56h-1.56ZM57.03 3.91h1.56v1.56h-1.56ZM60.16 3.91h1.56v1.56h-1.56ZM51.56 7.81h3.13v3.13h-3.13ZM50.78 7.03h1.56v1.56h-1.56ZM53.91 7.03h1.56v1.56h-1.56ZM50.78 10.16h1.56v1.56h-1.56ZM53.91 10.16h1.56v1.56h-1.56ZM57.81 7.81h3.13v3.13h-3.13ZM57.03 7.03h1.56v1.56h-1.56ZM60.16 7.03h1.56v1.56h-1.56ZM57.03 10.16h1.56v1.56h-1.56ZM60.16 10.16h1.56v1.56h-1.56ZM65.63 3.13h6.25v6.25h-6.25ZM64.06 1.56h3.13v3.13h-3.13ZM63.28 0.78h1.56v1.56h-1.56ZM66.41 0.78h1.56v1.56h-1.56ZM63.28 3.91h1.56v1.56h-1.56ZM66.41 3.91h1.56v1.56h-1.56ZM70.31 1.56h3.13v3.13h-3.13ZM69.53 0.78h1.56v1.56h-1.56ZM72.66 0.78h1.56v1.56h-1.56ZM69.53 3.91h1.56v1.56h-1.56ZM72.66 3.91h1.56v1.56h-1.56ZM64.06 7.81h3.13v3.13h-3.13ZM63.28 7.03h1.56v1.56h-1.56ZM66.41 7.03h1.56v1.56h-1.56ZM63.28 10.16h1.56v1.56h-1.56ZM66.41 10.16h1.56v1.56h-1.56ZM70.31 7.81h3.13v3.13h-3.13ZM69.53 7.03h1.56v1.56h-1.56ZM72.66 7.03h1.56v1.56h-1.56ZM69.53 10.16h1.56v1.56h-1.56ZM72.66 10.16h1.56v1.56h-1.56ZM53.13 15.63h6.25v6.25h-6.25ZM51.56 14.06h3.13v3.13h-3.13ZM50.78 13.28h1.56v1.56h-1.56ZM53.91 13.28h1.56v1.56h-1.56ZM50.78 16.41h1.56v1.56h-1.56ZM53.91 16.41h1.56v1.56h-1.56ZM57.81 14.06h3.13v3.13h-3.13ZM57.03 13.28h1.56v1.56h-1.56ZM60.16 13.28h1.56v1.56h-1.56ZM57.03 16.41h1.56v1.56h-1.56ZM60.16 16.41h1.56v1.56h-1.56ZM51.56 20.31h3.13v3.13h-3.13ZM50.78 19.53h1.56v1.56h-1.56ZM53.91 19.53h1.56v1.56h-1.56ZM50.78 22.66h1.56v1.56h-1.56ZM53.91 22.66h1.56v1.56h-1.56ZM57.81 20.31h3.13v3.13h-3.13ZM57.03 19.53h1.56v1.56h-1.56ZM60.16 19.53h1.56v1.56h-1.56ZM57.03 22.66h1.56v1.56h-1.56ZM60.16 22.66h1.56v1.56h-1.56ZM65.63 15.63h6.25v6.25h-6.25ZM64.06 14.06h3.13v3.13h-3.13ZM63.28 13.28h1.56v1.56h-1.56ZM66.41 13.28h1.56v1.56h-1.56ZM63.28 16.41h1.56v1.56h-1.56ZM66.41 16.41h1.56v1.56h-1.56ZM70.31 14.06h3.13v3.13h-3.13ZM69.53 13.28h1.56v1.56h-1.56ZM72.66 13.28h1.56v1.56h-1.56ZM69.53 16.41h1.56v1.56h-1.56ZM72.66 16.41h1.56v1.56h-1.56ZM64.06 20.31h3.13v3.13h-3.13ZM63.28 19.53h1.56v1.56h-1.56ZM66.41 19.53h1.56v1.56h-1.56ZM63.28 22.66h1.56v1.56h-1.56ZM66.41 22.66h1.56v1.56h-1.56ZM70.31 20.31h3.13v3.13h-3.13ZM69.53 19.53h1.56v1.56h-1.56ZM72.66 19.53h1.56v1.56h-1.56ZM69.53 22.66h1.56v1.56h-1.56ZM72.66 22.66h1.56v1.56h-1.56ZM81.25 6.25h12.50v12.50h-12.5ZM78.13 3.13h6.25v6.25h-6.25ZM76.56 1.56h3.13v3.13h-3.13ZM75.78 0.78h1.56v1.56h-1.56ZM78.91 0.78h1.56v1.56h-1.56ZM75.78 3.91h1.56v1.56h-1.56ZM78.91 3.91h1.56v1.56h-1.56ZM82.81 1.56h3.13v3.13h-3.13ZM82.03 0.78h1.56v1.56h-1.56ZM85.16 0.78h1.56v1.56h-1.56ZM82.03 3.91h1.56v1.56h-1.56ZM85.16 3.91h1.56v1.56h-1.56ZM76.56 7.81h3.13v3.13h-3.13ZM75.78 7.03h1.56v1.56h-1.56ZM78.91 7.03h1.56v1.56h-1.56ZM75.78 10.16h1.56v1.56h-1.56ZM78.91 10.16h1.56v1.56h-1.56ZM82.81 7.81h3.13v3.13h-3.13ZM82.03 7.03h1.56v1.56h-1.56ZM85.16 7.03h1.56v1.56h-1.56ZM82.03 10.16h1.56v1.56h-1.56ZM85.16 10.16h1.56v1.56h-1.56ZM90.63 3.13h6.25v6.25h-6.25ZM89.06 1.56h3.13v3.13h-3.13ZM88.28 0.78h1.56v1.56h-1.56ZM91.41 0.78h1.56v1.56h-1.56ZM88.28 3.91h1.56v1.56h-1.56ZM91.41 3.91h1.56v1.56h-1.56ZM95.31 1.56h3.13v3.13h-3.13ZM94.53 0.78h1.56v1.56h-1.56ZM97.66 0.78h1.56v1.56h-1.56ZM94.53 3.91h1.56v1.56h-1.56ZM97.66 3.91h1.56v1.56h-1.56ZM89.06 7.81h3.13v3.13h-3.13ZM88.28 7.03h1.56v1.56h-1.56ZM91.41 7.03h1.56v1.56h-1.56ZM88.28 10.16h1.56v1.56h-1.56ZM91.41 10.16h1.56v1.56h-1.56ZM95.31 7.81h3.13v3.13h-3.13ZM94.53 7.03h1.56v1.56h-1.56ZM97.66 7.03h1.56v1.56h-1.56ZM94.53 10.16h1.56v1.56h-1.56ZM97.66 10.16h1.56v1.56h-1.56ZM78.13 15.63h6.25v6.25h-6.25ZM76.56 14.06h3.13v3.13h-3.13ZM75.78 13.28h1.56v1.56h-1.56ZM78.91 13.28h1.56v1.56h-1.56ZM75.78 16.41h1.56v1.56h-1.56ZM78.91 16.41h1.56v1.56h-1.56ZM82.81 14.06h3.13v3.13h-3.13ZM82.03 13.28h1.56v1.56h-1.56ZM85.16 13.28h1.56v1.56h-1.56ZM82.03 16.41h1.56v1.56h-1.56ZM85.16 16.41h1.56v1.56h-1.56ZM76.56 20.31h3.13v3.13h-3.13ZM75.78 19.53h1.56v1.56h-1.56ZM78.91 19.53h1.56v1.56h-1.56ZM75.78 22.66h1.56v1.56h-1.56ZM78.91 22.66h1.56v1.56h-1.56ZM82.81 20.31h3.13v3.13h-3.13ZM82.03 19.53h1.56v1.56h-1.56ZM85.16 19.53h1.56v1.56h-1.56ZM82.03 22.66h1.56v1.56h-1.56ZM85.16 22.66h1.56v1.56h-1.56ZM90.63 15.63h6.25v6.25h-6.25ZM89.06 14.06h3.13v3.13h-3.13ZM88.28 13.28h1.56v1.56h-1.56ZM91.41 13.28h1.56v1.56h-1.56ZM88.28 16.41h1.56v1.56h-1.56ZM91.41 16.41h1.56v1.56h-1.56ZM95.31 14.06h3.13v3.13h-3.13ZM94.53 13.28h1.56v1.56h-1.56ZM97.66 13.28h1.56v1.56h-1.56ZM94.53 16.41h1.56v1.56h-1.56ZM97.66 16.41h1.56v1.56h-1.56ZM89.06 20.31h3.13v3.13h-3.13ZM88.28 19.53h1.56v1.56h-1.56ZM91.41 19.53h1.56v1.56h-1.56ZM88.28 22.66h1.56v1.56h-1.56ZM91.41 22.66h1.56v1.56h-1.56ZM95.31 20.31h3.13v3.13h-3.13ZM94.53 19.53h1.56v1.56h-1.56ZM97.66 19.53h1.56v1.56h-1.56ZM94.53 22.66h1.56v1.56h-1.56ZM97.66 22.66h1.56v1.56h-1.56ZM56.25 31.25h12.50v12.50h-12.5ZM53.13 28.13h6.25v6.25h-6.25ZM51.56 26.56h3.13v3.13h-3.13ZM50.78 25.78h1.56v1.56h-1.56ZM53.91 25.78h1.56v1.56h-1.56ZM50.78 28.91h1.56v1.56h-1.56ZM53.91 28.91h1.56v1.56h-1.56ZM57.81 26.56h3.13v3.13h-3.13ZM57.03 25.78h1.56v1.56h-1.56ZM60.16 25.78h1.56v1.56h-1.56ZM57.03 28.91h1.56v1.56h-1.56ZM60.16 28.91h1.56v1.56h-1.56ZM51.56 32.81h3.13v3.13h-3.13ZM50.78 32.03h1.56v1.56h-1.56ZM53.91 32.03h1.56v1.56h-1.56ZM50.78 35.16h1.56v1.56h-1.56ZM53.91 35.16h1.56v1.56h-1.56ZM57.81 32.81h3.13v3.13h-3.13ZM57.03 32.03h1.56v1.56h-1.56ZM60.16 32.03h1.56v1.56h-1.56ZM57.03 35.16h1.56v1.56h-1.56ZM60.16 35.16h1.56v1.56h-1.56ZM65.63 28.13h6.25v6.25h-6.25ZM64.06 26.56h3.13v3.13h-3.13ZM63.28 25.78h1.56v1.56h-1.56ZM66.41 25.78h1.56v1.56h-1.56ZM63.28 28.91h1.56v1.56h-1.56ZM66.41 28.91h1.56v1.56h-1.56ZM70.31 26.56h3.13v3.13h-3.13ZM69.53 25.78h1.56v1.56h-1.56ZM72.66 25.78h1.56v1.56h-1.56ZM69.53 28.91h1.56v1.56h-1.56ZM72.66 28.91h1.56v1.56h-1.56ZM64.06 32.81h3.13v3.13h-3.13ZM63.28 32.03h1.56v1.56h-1.56ZM66.41 32.03h1.56v1.56h-1.56ZM63.28 35.16h1.56v1.56h-1.56ZM66.41 35.16h1.56v1.56h-1.56ZM70.31 32.81h3.13v3.13h-3.13ZM69.53 32.03h1.56v1.56h-1.56ZM72.66 32.03h1.56v1.56h-1.56ZM69.53 35.16h1.56v1.56h-1.56ZM72.66 35.16h1.56v1.56h-1.56ZM53.13 40.63h6.25v6.25h-6.25ZM51.56 39.06h3.13v3.13h-3.13ZM50.78 38.28h1.56v1.56h-1.56ZM53.91 38.28h1.56v1.56h-1.56ZM50.78 41.41h1.56v1.56h-1.56ZM53.91 41.41h1.56v1.56h-1.56ZM57.81 39.06h3.13v3.13h-3.13ZM57.03 38.28h1.56v1.56h-1.56ZM60.16 38.28h1.56v1.56h-1.56ZM57.03 41.41h1.56v1.56h-1.56ZM60.16 41.41h1.56v1.56h-1.56ZM51.56 45.31h3.13v3.13h-3.13ZM50.78 44.53h1.56v1.56h-1.56ZM53.91 44.53h1.56v1.56h-1.56ZM50.78 47.66h1.56v1.56h-1.56ZM53.91 47.66h1.56v1.56h-1.56ZM57.81 45.31h3.13v3.13h-3.13ZM57.03 44.53h1.56v1.56h-1.56ZM60.16 44.53h1.56v1.56h-1.56ZM57.03 47.66h1.56v1.56h-1.56ZM60.16 47.66h1.56v1.56h-1.56ZM65.63 40.63h6.25v6.25h-6.25ZM64.06 39.06h3.13v3.13h-3.13ZM63.28 38.28h1.56v1.56h-1.56ZM66.41 38.28h1.56v1.56h-1.56ZM63.28 41.41h1.56v1.56h-1.56ZM66.41 41.41h1.56v1.56h-1.56ZM70.31 39.06h3.13v3.13h-3.13ZM69.53 38.28h1.56v1.56h-1.56ZM72.66 38.28h1.56v1.56h-1.56ZM69.53 41.41h1.56v1.56h-1.56ZM72.66 41.41h1.56v1.56h-1.56ZM64.06 45.31h3.13v3.13h-3.13ZM63.28 44.53h1.56v1.56h-1.56ZM66.41 44.53h1.56v1.56h-1.56ZM63.28 47.66h1.56v1.56h-1.56ZM66.41 47.66h1.56v1.56h-1.56ZM70.31 45.31h3.13v3.13h-3.13ZM69.53 44.53h1.56v1.56h-1.56ZM72.66 44.53h1.56v1.56h-1.56ZM69.53 47.66h1.56v1.56h-1.56ZM72.66 47.66h1.56v1.56h-1.56ZM81.25 31.25h12.50v12.50h-12.5ZM78.13 28.13h6.25v6.25h-6.25ZM76.56 26.56h3.13v3.13h-3.13ZM75.78 25.78h1.56v1.56h-1.56ZM78.91 25.78h1.56v1.56h-1.56ZM75.78 28.91h1.56v1.56h-1.56ZM78.91 28.91h1.56v1.56h-1.56ZM82.81 26.56h3.13v3.13h-3.13ZM82.03 25.78h1.56v1.56h-1.56ZM85.16 25.78h1.56v1.56h-1.56ZM82.03 28.91h1.56v1.56h-1.56ZM85.16 28.91h1.56v1.56h-1.56ZM76.56 32.81h3.13v3.13h-3.13ZM75.78 32.03h1.56v1.56h-1.56ZM78.91 32.03h1.56v1.56h-1.56ZM75.78 35.16h1.56v1.56h-1.56ZM78.91 35.16h1.56v1.56h-1.56ZM82.81 32.81h3.13v3.13h-3.13ZM82.03 32.03h1.56v1.56h-1.56ZM85.16 32.03h1.56v1.56h-1.56ZM82.03 35.16h1.56v1.56h-1.56ZM85.16 35.16h1.56v1.56h-1.56ZM90.63 28.13h6.25v6.25h-6.25ZM89.06 26.56h3.13v3.13h-3.13ZM88.28 25.78h1.56v1.56h-1.56ZM91.41 25.78h1.56v1.56h-1.56ZM88.28 28.91h1.56v1.56h-1.56ZM91.41 28.91h1.56v1.56h-1.56ZM95.31 26.56h3.13v3.13h-3.13ZM94.53 25.78h1.56v1.56h-1.56ZM97.66 25.78h1.56v1.56h-1.56ZM94.53 28.91h1.56v1.56h-1.56ZM97.66 28.91h1.56v1.56h-1.56ZM89.06 32.81h3.13v3.13h-3.13ZM88.28 32.03h1.56v1.56h-1.56ZM91.41 32.03h1.56v1.56h-1.56ZM88.28 35.16h1.56v1.56h-1.56ZM91.41 35.16h1.56v1.56h-1.56ZM95.31 32.81h3.13v3.13h-3.13ZM94.53 32.03h1.56v1.56h-1.56ZM97.66 32.03h1.56v1.56h-1.56ZM94.53 35.16h1.56v1.56h-1.56ZM97.66 35.16h1.56v1.56h-1.56ZM78.13 40.63h6.25v6.25h-6.25ZM76.56 39.06h3.13v3.13h-3.13ZM75.78 38.28h1.56v1.56h-1.56ZM78.91 38.28h1.56v1.56h-1.56ZM75.78 41.41h1.56v1.56h-1.56ZM78.91 41.41h1.56v1.56h-1.56ZM82.81 39.06h3.13v3.13h-3.13ZM82.03 38.28h1.56v1.56h-1.56ZM85.16 38.28h1.56v1.56h-1.56ZM82.03 41.41h1.56v1.56h-1.56ZM85.16 41.41h1.56v1.56h-1.56ZM76.56 45.31h3.13v3.13h-3.13ZM75.78 44.53h1.56v1.56h-1.56ZM78.91 44.53h1.56v1.56h-1.56ZM75.78 47.66h1.56v1.56h-1.56ZM78.91 47.66h1.56v1.56h-1.56ZM82.81 45.31h3.13v3.13h-3.13ZM82.03 44.53h1.56v1.56h-1.56ZM85.16 44.53h1.56v1.56h-1.56ZM82.03 47.66h1.56v1.56h-1.56ZM85.16 47.66h1.56v1.56h-1.56ZM90.63 40.63h6.25v6.25h-6.25ZM89.06 39.06h3.13v3.13h-3.13ZM88.28 38.28h1.56v1.56h-1.56ZM91.41 38.28h1.56v1.56h-1.56ZM88.28 41.41h1.56v1.56h-1.56ZM91.41 41.41h1.56v1.56h-1.56ZM95.31 39.06h3.13v3.13h-3.13ZM94.53 38.28h1.56v1.56h-1.56ZM97.66 38.28h1.56v1.56h-1.56ZM94.53 41.41h1.56v1.56h-1.56ZM97.66 41.41h1.56v1.56h-1.56ZM89.06 45.31h3.13v3.13h-3.13ZM88.28 44.53h1.56v1.56h-1.56ZM91.41 44.53h1.56v1.56h-1.56ZM88.28 47.66h1.56v1.56h-1.56ZM91.41 47.66h1.56v1.56h-1.56ZM95.31 45.31h3.13v3.13h-3.13ZM94.53 44.53h1.56v1.56h-1.56ZM97.66 44.53h1.56v1.56h-1.56ZM94.53 47.66h1.56v1.56h-1.56ZM97.66 47.66h1.56v1.56h-1.56ZM12.50 62.50h25.00v25.00h-25ZM6.25 56.25h12.50v12.50h-12.5ZM3.13 53.13h6.25v6.25h-6.25ZM1.56 51.56h3.13v3.13h-3.13ZM0.78 50.78h1.56v1.56h-1.56ZM3.91 50.78h1.56v1.56h-1.56ZM0.78 53.91h1.56v1.56h-1.56ZM3.91 53.91h1.56v1.56h-1.56ZM7.81 51.56h3.13v3.13h-3.13ZM7.03 50.78h1.56v1.56h-1.56ZM10.16 50.78h1.56v1.56h-1.56ZM7.03 53.91h1.56v1.56h-1.56ZM10.16 53.91h1.56v1.56h-1.56ZM1.56 57.81h3.13v3.13h-3.13ZM0.78 57.03h1.56v1.56h-1.56ZM3.91 57.03h1.56v1.56h-1.56ZM0.78 60.16h1.56v1.56h-1.56ZM3.91 60.16h1.56v1.56h-1.56ZM7.81 57.81h3.13v3.13h-3.13ZM7.03 57.03h1.56v1.56h-1.56ZM10.16 57.03h1.56v1.56h-1.56ZM7.03 60.16h1.56v1.56h-1.56ZM10.16 60.16h1.56v1.56h-1.56ZM15.63 53.13h6.25v6.25h-6.25ZM14.06 51.56h3.13v3.13h-3.13ZM13.28 50.78h1.56v1.56h-1.56ZM16.41 50.78h1.56v1.56h-1.56ZM13.28 53.91h1.56v1.56h-1.56ZM16.41 53.91h1.56v1.56h-1.56ZM20.31 51.56h3.13v3.13h-3.13ZM19.53 50.78h1.56v1.56h-1.56ZM22.66 50.78h1.56v1.56h-1.56ZM19.53 53.91h1.56v1.56h-1.56ZM22.66 53.91h1.56v1.56h-1.56ZM14.06 57.81h3.13v3.13h-3.13ZM13.28 57.03h1.56v1.56h-1.56ZM16.41 57.03h1.56v1.56h-1.56ZM13.28 60.16h1.56v1.56h-1.56ZM16.41 60.16h1.56v1.56h-1.56ZM20.31 57.81h3.13v3.13h-3.13ZM19.53 57.03h1.56v1.56h-1.56ZM22.66 57.03h1.56v1.56h-1.56ZM19.53 60.16h1.56v1.56h-1.56ZM22.66 60.16h1.56v1.56h-1.56ZM3.13 65.63h6.25v6.25h-6.25ZM1.56 64.06h3.13v3.13h-3.13ZM0.78 63.28h1.56v1.56h-1.56ZM3.91 63.28h1.56v1.56h-1.56ZM0.78 66.41h1.56v1.56h-1.56ZM3.91 66.41h1.56v1.56h-1.56ZM7.81 64.06h3.13v3.13h-3.13ZM7.03 63.28h1.56v1.56h-1.56ZM10.16 63.28h1.56v1.56h-1.56ZM7.03 66.41h1.56v1.56h-1.56ZM10.16 66.41h1.56v1.56h-1.56ZM1.56 70.31h3.13v3.13h-3.13ZM0.78 69.53h1.56v1.56h-1.56ZM3.91 69.53h1.56v1.56h-1.56ZM0.78 72.66h1.56v1.56h-1.56ZM3.91 72.66h1.56v1.56h-1.56ZM7.81 70.31h3.13v3.13h-3.13ZM7.03 69.53h1.56v1.56h-1.56ZM10.16 69.53h1.56v1.56h-1.56ZM7.03 72.66h1.56v1.56h-1.56ZM10.16 72.66h1.56v1.56h-1.56ZM15.63 65.63h6.25v6.25h-6.25ZM14.06 64.06h3.13v3.13h-3.13ZM13.28 63.28h1.56v1.56h-1.56ZM16.41 63.28h1.56v1.56h-1.56ZM13.28 66.41h1.56v1.56h-1.56ZM16.41 66.41h1.56v1.56h-1.56ZM20.31 64.06h3.13v3.13h-3.13ZM19.53 63.28h1.56v1.56h-1.56ZM22.66 63.28h1.56v1.56h-1.56ZM19.53 66.41h1.56v1.56h-1.56ZM22.66 66.41h1.56v1.56h-1.56ZM14.06 70.31h3.13v3.13h-3.13ZM13.28 69.53h1.56v1.56h-1.56ZM16.41 69.53h1.56v1.56h-1.56ZM13.28 72.66h1.56v1.56h-1.56ZM16.41 72.66h1.56v1.56h-1.56ZM20.31 70.31h3.13v3.13h-3.13ZM19.53 69.53h1.56v1.56h-1.56ZM22.66 69.53h1.56v1.56h-1.56ZM19.53 72.66h1.56v1.56h-1.56ZM22.66 72.66h1.56v1.56h-1.56ZM31.25 56.25h12.50v12.50h-12.5ZM28.13 53.13h6.25v6.25h-6.25ZM26.56 51.56h3.13v3.13h-3.13ZM25.78 50.78h1.56v1.56h-1.56ZM28.91 50.78h1.56v1.56h-1.56ZM25.78 53.91h1.56v1.56h-1.56ZM28.91 53.91h1.56v1.56h-1.56ZM32.81 51.56h3.13v3.13h-3.13ZM32.03 50.78h1.56v1.56h-1.56ZM35.16 50.78h1.56v1.56h-1.56ZM32.03 53.91h1.56v1.56h-1.56ZM35.16 53.91h1.56v1.56h-1.56ZM26.56 57.81h3.13v3.13h-3.13ZM25.78 57.03h1.56v1.56h-1.56ZM28.91 57.03h1.56v1.56h-1.56ZM25.78 60.16h1.56v1.56h-1.56ZM28.91 60.16h1.56v1.56h-1.56ZM32.81 57.81h3.13v3.13h-3.13ZM32.03 57.03h1.56v1.56h-1.56ZM35.16 57.03h1.56v1.56h-1.56ZM32.03 60.16h1.56v1.56h-1.56ZM35.16 60.16h1.56v1.56h-1.56ZM40.63 53.13h6.25v6.25h-6.25ZM39.06 51.56h3.13v3.13h-3.13ZM38.28 50.78h1.56v1.56h-1.56ZM41.41 50.78h1.56v1.56h-1.56ZM38.28 53.91h1.56v1.56h-1.56ZM41.41 53.91h1.56v1.56h-1.56ZM45.31 51.56h3.13v3.13h-3.13ZM44.53 50.78h1.56v1.56h-1.56ZM47.66 50.78h1.56v1.56h-1.56ZM44.53 53.91h1.56v1.56h-1.56ZM47.66 53.91h1.56v1.56h-1.56ZM39.06 57.81h3.13v3.13h-3.13ZM38.28 57.03h1.56v1.56h-1.56ZM41.41 57.03h1.56v1.56h-1.56ZM38.28 60.16h1.56v1.56h-1.56ZM41.41 60.16h1.56v1.56h-1.56ZM45.31 57.81h3.13v3.13h-3.13ZM44.53 57.03h1.56v1.56h-1.56ZM47.66 57.03h1.56v1.56h-1.56ZM44.53 60.16h1.56v1.56h-1.56ZM47.66 60.16h1.56v1.56h-1.56ZM28.13 65.63h6.25v6.25h-6.25ZM26.56 64.06h3.13v3.13h-3.13ZM25.78 63.28h1.56v1.56h-1.56ZM28.91 63.28h1.56v1.56h-1.56ZM25.78 66.41h1.56v1.56h-1.56ZM28.91 66.41h1.56v1.56h-1.56ZM32.81 64.06h3.13v3.13h-3.13ZM32.03 63.28h1.56v1.56h-1.56ZM35.16 63.28h1.56v1.56h-1.56ZM32.03 66.41h1.56v1.56h-1.56ZM35.16 66.41h1.56v1.56h-1.56ZM26.56 70.31h3.13v3.13h-3.13ZM25.78 69.53h1.56v1.56h-1.56ZM28.91 69.53h1.56v1.56h-1.56ZM25.78 72.66h1.56v1.56h-1.56ZM28.91 72.66h1.56v1.56h-1.56ZM32.81 70.31h3.13v3.13h-3.13ZM32.03 69.53h1.56v1.56h-1.56ZM35.16 69.53h1.56v1.56h-1.56ZM32.03 72.66h1.56v1.56h-1.56ZM35.16 72.66h1.56v1.56h-1.56ZM40.63 65.63h6.25v6.25h-6.25ZM39.06 64.06h3.13v3.13h-3.13ZM38.28 63.28h1.56v1.56h-1.56ZM41.41 63.28h1.56v1.56h-1.56ZM38.28 66.41h1.56v1.56h-1.56ZM41.41 66.41h1.56v1.56h-1.56ZM45.31 64.06h3.13v3.13h-3.13ZM44.53 63.28h1.56v1.56h-1.56ZM47.66 63.28h1.56v1.56h-1.56ZM44.53 66.41h1.56v1.56h-1.56ZM47.66 66.41h1.56v1.56h-1.56ZM39.06 70.31h3.13v3.13h-3.13ZM38.28 69.53h1.56v1.56h-1.56ZM41.41 69.53h1.56v1.56h-1.56ZM38.28 72.66h1.56v1.56h-1.56ZM41.41 72.66h1.56v1.56h-1.56ZM45.31 70.31h3.13v3.13h-3.13ZM44.53 69.53h1.56v1.56h-1.56ZM47.66 69.53h1.56v1.56h-1.56ZM44.53 72.66h1.56v1.56h-1.56ZM47.66 72.66h1.56v1.56h-1.56ZM6.25 81.25h12.50v12.50h-12.5ZM3.13 78.13h6.25v6.25h-6.25ZM1.56 76.56h3.13v3.13h-3.13ZM0.78 75.78h1.56v1.56h-1.56ZM3.91 75.78h1.56v1.56h-1.56ZM0.78 78.91h1.56v1.56h-1.56ZM3.91 78.91h1.56v1.56h-1.56ZM7.81 76.56h3.13v3.13h-3.13ZM7.03 75.78h1.56v1.56h-1.56ZM10.16 75.78h1.56v1.56h-1.56ZM7.03 78.91h1.56v1.56h-1.56ZM10.16 78.91h1.56v1.56h-1.56ZM1.56 82.81h3.13v3.13h-3.13ZM0.78 82.03h1.56v1.56h-1.56ZM3.91 82.03h1.56v1.56h-1.56ZM0.78 85.16h1.56v1.56h-1.56ZM3.91 85.16h1.56v1.56h-1.56ZM7.81 82.81h3.13v3.13h-3.13ZM7.03 82.03h1.56v1.56h-1.56ZM10.16 82.03h1.56v1.56h-1.56ZM7.03 85.16h1.56v1.56h-1.56ZM10.16 85.16h1.56v1.56h-1.56ZM15.63 78.13h6.25v6.25h-6.25ZM14.06 76.56h3.13v3.13h-3.13ZM13.28 75.78h1.56v1.56h-1.56ZM16.41 75.78h1.56v1.56h-1.56ZM13.28 78.91h1.56v1.56h-1.56ZM16.41 78.91h1.56v1.56h-1.56ZM20.31 76.56h3.13v3.13h-3.13ZM19.53 75.78h1.56v1.56h-1.56ZM22.66 75.78h1.56v1.56h-1.56ZM19.53 78.91h1.56v1.56h-1.56ZM22.66 78.91h1.56v1.56h-1.56ZM14.06 82.81h3.13v3.13h-3.13ZM13.28 82.03h1.56v1.56h-1.56ZM16.41 82.03h1.56v1.56h-1.56ZM13.28 85.16h1.56v1.56h-1.56ZM16.41 85.16h1.56v1.56h-1.56ZM20.31 82.81h3.13v3.13h-3.13ZM19.53 82.03h1.56v1.56h-1.56ZM22.66 82.03h1.56v1.56h-1.56ZM19.53 85.16h1.56v1.56h-1.56ZM22.66 85.16h1.56v1.56h-1.56ZM3.13 90.63h6.25v6.25h-6.25ZM1.56 89.06h3.13v3.13h-3.13ZM0.78 88.28h1.56v1.56h-1.56ZM3.91 88.28h1.56v1.56h-1.56ZM0.78 91.41h1.56v1.56h-1.56ZM3.91 91.41h1.56v1.56h-1.56ZM7.81 89.06h3.13v3.13h-3.13ZM7.03 88.28h1.56v1.56h-1.56ZM10.16 88.28h1.56v1.56h-1.56ZM7.03 91.41h1.56v1.56h-1.56ZM10.16 91.41h1.56v1.56h-1.56ZM1.56 95.31h3.13v3.13h-3.13ZM0.78 94.53h1.56v1.56h-1.56ZM3.91 94.53h1.56v1.56h-1.56ZM0.78 97.66h1.56v1.56h-1.56ZM3.91 97.66h1.56v1.56h-1.56ZM7.81 95.31h3.13v3.13h-3.13ZM7.03 94.53h1.56v1.56h-1.56ZM10.16 94.53h1.56v1.56h-1.56ZM7.03 97.66h1.56v1.56h-1.56ZM10.16 97.66h1.56v1.56h-1.56ZM15.63 90.63h6.25v6.25h-6.25ZM14.06 89.06h3.13v3.13h-3.13ZM13.28 88.28h1.56v1.56h-1.56ZM16.41 88.28h1.56v1.56h-1.56ZM13.28 91.41h1.56v1.56h-1.56ZM16.41 91.41h1.56v1.56h-1.56ZM20.31 89.06h3.13v3.13h-3.13ZM19.53 88.28h1.56v1.56h-1.56ZM22.66 88.28h1.56v1.56h-1.56ZM19.53 91.41h1.56v1.56h-1.56ZM22.66 91.41h1.56v1.56h-1.56ZM14.06 95.31h3.13v3.13h-3.13ZM13.28 94.53h1.56v1.56h-1.56ZM16.41 94.53h1.56v1.56h-1.56ZM13.28 97.66h1.56v1.56h-1.56ZM16.41 97.66h1.56v1.56h-1.56ZM20.31 95.31h3.13v3.13h-3.13ZM19.53 94.53h1.56v1.56h-1.56ZM22.66 94.53h1.56v1.56h-1.56ZM19.53 97.66h1.56v1.56h-1.56ZM22.66 97.66h1.56v1.56h-1.56ZM31.25 81.25h12.50v12.50h-12.5ZM28.13 78.13h6.25v6.25h-6.25ZM26.56 76.56h3.13v3.13h-3.13ZM25.78 75.78h1.56v1.56h-1.56ZM28.91 75.78h1.56v1.56h-1.56ZM25.78 78.91h1.56v1.56h-1.56ZM28.91 78.91h1.56v1.56h-1.56ZM32.81 76.56h3.13v3.13h-3.13ZM32.03 75.78h1.56v1.56h-1.56ZM35.16 75.78h1.56v1.56h-1.56ZM32.03 78.91h1.56v1.56h-1.56ZM35.16 78.91h1.56v1.56h-1.56ZM26.56 82.81h3.13v3.13h-3.13ZM25.78 82.03h1.56v1.56h-1.56ZM28.91 82.03h1.56v1.56h-1.56ZM25.78 85.16h1.56v1.56h-1.56ZM28.91 85.16h1.56v1.56h-1.56ZM32.81 82.81h3.13v3.13h-3.13ZM32.03 82.03h1.56v1.56h-1.56ZM35.16 82.03h1.56v1.56h-1.56ZM32.03 85.16h1.56v1.56h-1.56ZM35.16 85.16h1.56v1.56h-1.56ZM40.63 78.13h6.25v6.25h-6.25ZM39.06 76.56h3.13v3.13h-3.13ZM38.28 75.78h1.56v1.56h-1.56ZM41.41 75.78h1.56v1.56h-1.56ZM38.28 78.91h1.56v1.56h-1.56ZM41.41 78.91h1.56v1.56h-1.56ZM45.31 76.56h3.13v3.13h-3.13ZM44.53 75.78h1.56v1.56h-1.56ZM47.66 75.78h1.56v1.56h-1.56ZM44.53 78.91h1.56v1.56h-1.56ZM47.66 78.91h1.56v1.56h-1.56ZM39.06 82.81h3.13v3.13h-3.13ZM38.28 82.03h1.56v1.56h-1.56ZM41.41 82.03h1.56v1.56h-1.56ZM38.28 85.16h1.56v1.56h-1.56ZM41.41 85.16h1.56v1.56h-1.56ZM45.31 82.81h3.13v3.13h-3.13ZM44.53 82.03h1.56v1.56h-1.56ZM47.66 82.03h1.56v1.56h-1.56ZM44.53 85.16h1.56v1.56h-1.56ZM47.66 85.16h1.56v1.56h-1.56ZM28.13 90.63h6.25v6.25h-6.25ZM26.56 89.06h3.13v3.13h-3.13ZM25.78 88.28h1.56v1.56h-1.56ZM28.91 88.28h1.56v1.56h-1.56ZM25.78 91.41h1.56v1.56h-1.56ZM28.91 91.41h1.56v1.56h-1.56ZM32.81 89.06h3.13v3.13h-3.13ZM32.03 88.28h1.56v1.56h-1.56ZM35.16 88.28h1.56v1.56h-1.56ZM32.03 91.41h1.56v1.56h-1.56ZM35.16 91.41h1.56v1.56h-1.56ZM26.56 95.31h3.13v3.13h-3.13ZM25.78 94.53h1.56v1.56h-1.56ZM28.91 94.53h1.56v1.56h-1.56ZM25.78 97.66h1.56v1.56h-1.56ZM28.91 97.66h1.56v1.56h-1.56ZM32.81 95.31h3.13v3.13h-3.13ZM32.03 94.53h1.56v1.56h-1.56ZM35.16 94.53h1.56v1.56h-1.56ZM32.03 97.66h1.56v1.56h-1.56ZM35.16 97.66h1.56v1.56h-1.56ZM40.63 90.63h6.25v6.25h-6.25ZM39.06 89.06h3.13v3.13h-3.13ZM38.28 88.28h1.56v1.56h-1.56ZM41.41 88.28h1.56v1.56h-1.56ZM38.28 91.41h1.56v1.56h-1.56ZM41.41 91.41h1.56v1.56h-1.56ZM45.31 89.06h3.13v3.13h-3.13ZM44.53 88.28h1.56v1.56h-1.56ZM47.66 88.28h1.56v1.56h-1.56ZM44.53 91.41h1.56v1.56h-1.56ZM47.66 91.41h1.56v1.56h-1.56ZM39.06 95.31h3.13v3.13h-3.13ZM38.28 94.53h1.56v1.56h-1.56ZM41.41 94.53h1.56v1.56h-1.56ZM38.28 97.66h1.56v1.56h-1.56ZM41.41 97.66h1.56v1.56h-1.56ZM45.31 95.31h3.13v3.13h-3.13ZM44.53 94.53h1.56v1.56h-1.56ZM47.66 94.53h1.56v1.56h-1.56ZM44.53 97.66h1.56v1.56h-1.56ZM47.66 97.66h1.56v1.56h-1.56ZM62.50 62.50h25.00v25.00h-25ZM56.25 56.25h12.50v12.50h-12.5ZM53.13 53.13h6.25v6.25h-6.25ZM51.56 51.56h3.13v3.13h-3.13ZM50.78 50.78h1.56v1.56h-1.56ZM53.91 50.78h1.56v1.56h-1.56ZM50.78 53.91h1.56v1.56h-1.56ZM53.91 53.91h1.56v1.56h-1.56ZM57.81 51.56h3.13v3.13h-3.13ZM57.03 50.78h1.56v1.56h-1.56ZM60.16 50.78h1.56v1.56h-1.56ZM57.03 53.91h1.56v1.56h-1.56ZM60.16 53.91h1.56v1.56h-1.56ZM51.56 57.81h3.13v3.13h-3.13ZM50.78 57.03h1.56v1.56h-1.56ZM53.91 57.03h1.56v1.56h-1.56ZM50.78 60.16h1.56v1.56h-1.56ZM53.91 60.16h1.56v1.56h-1.56ZM57.81 57.81h3.13v3.13h-3.13ZM57.03 57.03h1.56v1.56h-1.56ZM60.16 57.03h1.56v1.56h-1.56ZM57.03 60.16h1.56v1.56h-1.56ZM60.16 60.16h1.56v1.56h-1.56ZM65.63 53.13h6.25v6.25h-6.25ZM64.06 51.56h3.13v3.13h-3.13ZM63.28 50.78h1.56v1.56h-1.56ZM66.41 50.78h1.56v1.56h-1.56ZM63.28 53.91h1.56v1.56h-1.56ZM66.41 53.91h1.56v1.56h-1.56ZM70.31 51.56h3.13v3.13h-3.13ZM69.53 50.78h1.56v1.56h-1.56ZM72.66 50.78h1.56v1.56h-1.56ZM69.53 53.91h1.56v1.56h-1.56ZM72.66 53.91h1.56v1.56h-1.56ZM64.06 57.81h3.13v3.13h-3.13ZM63.28 57.03h1.56v1.56h-1.56ZM66.41 57.03h1.56v1.56h-1.56ZM63.28 60.16h1.56v1.56h-1.56ZM66.41 60.16h1.56v1.56h-1.56ZM70.31 57.81h3.13v3.13h-3.13ZM69.53 57.03h1.56v1.56h-1.56ZM72.66 57.03h1.56v1.56h-1.56ZM69.53 60.16h1.56v1.56h-1.56ZM72.66 60.16h1.56v1.56h-1.56ZM53.13 65.63h6.25v6.25h-6.25ZM51.56 64.06h3.13v3.13h-3.13ZM50.78 63.28h1.56v1.56h-1.56ZM53.91 63.28h1.56v1.56h-1.56ZM50.78 66.41h1.56v1.56h-1.56ZM53.91 66.41h1.56v1.56h-1.56ZM57.81 64.06h3.13v3.13h-3.13ZM57.03 63.28h1.56v1.56h-1.56ZM60.16 63.28h1.56v1.56h-1.56ZM57.03 66.41h1.56v1.56h-1.56ZM60.16 66.41h1.56v1.56h-1.56ZM51.56 70.31h3.13v3.13h-3.13ZM50.78 69.53h1.56v1.56h-1.56ZM53.91 69.53h1.56v1.56h-1.56ZM50.78 72.66h1.56v1.56h-1.56ZM53.91 72.66h1.56v1.56h-1.56ZM57.81 70.31h3.13v3.13h-3.13ZM57.03 69.53h1.56v1.56h-1.56ZM60.16 69.53h1.56v1.56h-1.56ZM57.03 72.66h1.56v1.56h-1.56ZM60.16 72.66h1.56v1.56h-1.56ZM65.63 65.63h6.25v6.25h-6.25ZM64.06 64.06h3.13v3.13h-3.13ZM63.28 63.28h1.56v1.56h-1.56ZM66.41 63.28h1.56v1.56h-1.56ZM63.28 66.41h1.56v1.56h-1.56ZM66.41 66.41h1.56v1.56h-1.56ZM70.31 64.06h3.13v3.13h-3.13ZM69.53 63.28h1.56v1.56h-1.56ZM72.66 63.28h1.56v1.56h-1.56ZM69.53 66.41h1.56v1.56h-1.56ZM72.66 66.41h1.56v1.56h-1.56ZM64.06 70.31h3.13v3.13h-3.13ZM63.28 69.53h1.56v1.56h-1.56ZM66.41 69.53h1.56v1.56h-1.56ZM63.28 72.66h1.56v1.56h-1.56ZM66.41 72.66h1.56v1.56h-1.56ZM70.31 70.31h3.13v3.13h-3.13ZM69.53 69.53h1.56v1.56h-1.56ZM72.66 69.53h1.56v1.56h-1.56ZM69.53 72.66h1.56v1.56h-1.56ZM72.66 72.66h1.56v1.56h-1.56ZM81.25 56.25h12.50v12.50h-12.5ZM78.13 53.13h6.25v6.25h-6.25ZM76.56 51.56h3.13v3.13h-3.13ZM75.78 50.78h1.56v1.56h-1.56ZM78.91 50.78h1.56v1.56h-1.56ZM75.78 53.91h1.56v1.56h-1.56ZM78.91 53.91h1.56v1.56h-1.56ZM82.81 51.56h3.13v3.13h-3.13ZM82.03 50.78h1.56v1.56h-1.56ZM85.16 50.78h1.56v1.56h-1.56ZM82.03 53.91h1.56v1.56h-1.56ZM85.16 53.91h1.56v1.56h-1.56ZM76.56 57.81h3.13v3.13h-3.13ZM75.78 57.03h1.56v1.56h-1.56ZM78.91 57.03h1.56v1.56h-1.56ZM75.78 60.16h1.56v1.56h-1.56ZM78.91 60.16h1.56v1.56h-1.56ZM82.81 57.81h3.13v3.13h-3.13ZM82.03 57.03h1.56v1.56h-1.56ZM85.16 57.03h1.56v1.56h-1.56ZM82.03 60.16h1.56v1.56h-1.56ZM85.16 60.16h1.56v1.56h-1.56ZM90.63 53.13h6.25v6.25h-6.25ZM89.06 51.56h3.13v3.13h-3.13ZM88.28 50.78h1.56v1.56h-1.56ZM91.41 50.78h1.56v1.56h-1.56ZM88.28 53.91h1.56v1.56h-1.56ZM91.41 53.91h1.56v1.56h-1.56ZM95.31 51.56h3.13v3.13h-3.13ZM94.53 50.78h1.56v1.56h-1.56ZM97.66 50.78h1.56v1.56h-1.56ZM94.53 53.91h1.56v1.56h-1.56ZM97.66 53.91h1.56v1.56h-1.56ZM89.06 57.81h3.13v3.13h-3.13ZM88.28 57.03h1.56v1.56h-1.56ZM91.41 57.03h1.56v1.56h-1.56ZM88.28 60.16h1.56v1.56h-1.56ZM91.41 60.16h1.56v1.56h-1.56ZM95.31 57.81h3.13v3.13h-3.13ZM94.53 57.03h1.56v1.56h-1.56ZM97.66 57.03h1.56v1.56h-1.56ZM94.53 60.16h1.56v1.56h-1.56ZM97.66 60.16h1.56v1.56h-1.56ZM78.13 65.63h6.25v6.25h-6.25ZM76.56 64.06h3.13v3.13h-3.13ZM75.78 63.28h1.56v1.56h-1.56ZM78.91 63.28h1.56v1.56h-1.56ZM75.78 66.41h1.56v1.56h-1.56ZM78.91 66.41h1.56v1.56h-1.56ZM82.81 64.06h3.13v3.13h-3.13ZM82.03 63.28h1.56v1.56h-1.56ZM85.16 63.28h1.56v1.56h-1.56ZM82.03 66.41h1.56v1.56h-1.56ZM85.16 66.41h1.56v1.56h-1.56ZM76.56 70.31h3.13v3.13h-3.13ZM75.78 69.53h1.56v1.56h-1.56ZM78.91 69.53h1.56v1.56h-1.56ZM75.78 72.66h1.56v1.56h-1.56ZM78.91 72.66h1.56v1.56h-1.56ZM82.81 70.31h3.13v3.13h-3.13ZM82.03 69.53h1.56v1.56h-1.56ZM85.16 69.53h1.56v1.56h-1.56ZM82.03 72.66h1.56v1.56h-1.56ZM85.16 72.66h1.56v1.56h-1.56ZM90.63 65.63h6.25v6.25h-6.25ZM89.06 64.06h3.13v3.13h-3.13ZM88.28 63.28h1.56v1.56h-1.56ZM91.41 63.28h1.56v1.56h-1.56ZM88.28 66.41h1.56v1.56h-1.56ZM91.41 66.41h1.56v1.56h-1.56ZM95.31 64.06h3.13v3.13h-3.13ZM94.53 63.28h1.56v1.56h-1.56ZM97.66 63.28h1.56v1.56h-1.56ZM94.53 66.41h1.56v1.56h-1.56ZM97.66 66.41h1.56v1.56h-1.56ZM89.06 70.31h3.13v3.13h-3.13ZM88.28 69.53h1.56v1.56h-1.56ZM91.41 69.53h1.56v1.56h-1.56ZM88.28 72.66h1.56v1.56h-1.56ZM91.41 72.66h1.56v1.56h-1.56ZM95.31 70.31h3.13v3.13h-3.13ZM94.53 69.53h1.56v1.56h-1.56ZM97.66 69.53h1.56v1.56h-1.56ZM94.53 72.66h1.56v1.56h-1.56ZM97.66 72.66h1.56v1.56h-1.56ZM56.25 81.25h12.50v12.50h-12.5ZM53.13 78.13h6.25v6.25h-6.25ZM51.56 76.56h3.13v3.13h-3.13ZM50.78 75.78h1.56v1.56h-1.56ZM53.91 75.78h1.56v1.56h-1.56ZM50.78 78.91h1.56v1.56h-1.56ZM53.91 78.91h1.56v1.56h-1.56ZM57.81 76.56h3.13v3.13h-3.13ZM57.03 75.78h1.56v1.56h-1.56ZM60.16 75.78h1.56v1.56h-1.56ZM57.03 78.91h1.56v1.56h-1.56ZM60.16 78.91h1.56v1.56h-1.56ZM51.56 82.81h3.13v3.13h-3.13ZM50.78 82.03h1.56v1.56h-1.56ZM53.91 82.03h1.56v1.56h-1.56ZM50.78 85.16h1.56v1.56h-1.56ZM53.91 85.16h1.56v1.56h-1.56ZM57.81 82.81h3.13v3.13h-3.13ZM57.03 82.03h1.56v1.56h-1.56ZM60.16 82.03h1.56v1.56h-1.56ZM57.03 85.16h1.56v1.56h-1.56ZM60.16 85.16h1.56v1.56h-1.56ZM65.63 78.13h6.25v6.25h-6.25ZM64.06 76.56h3.13v3.13h-3.13ZM63.28 75.78h1.56v1.56h-1.56ZM66.41 75.78h1.56v1.56h-1.56ZM63.28 78.91h1.56v1.56h-1.56ZM66.41 78.91h1.56v1.56h-1.56ZM70.31 76.56h3.13v3.13h-3.13ZM69.53 75.78h1.56v1.56h-1.56ZM72.66 75.78h1.56v1.56h-1.56ZM69.53 78.91h1.56v1.56h-1.56ZM72.66 78.91h1.56v1.56h-1.56ZM64.06 82.81h3.13v3.13h-3.13ZM63.28 82.03h1.56v1.56h-1.56ZM66.41 82.03h1.56v1.56h-1.56ZM63.28 85.16h1.56v1.56h-1.56ZM66.41 85.16h1.56v1.56h-1.56ZM70.31 82.81h3.13v3.13h-3.13ZM69.53 82.03h1.56v1.56h-1.56ZM72.66 82.03h1.56v1.56h-1.56ZM69.53 85.16h1.56v1.56h-1.56ZM72.66 85.16h1.56v1.56h-1.56ZM53.13 90.63h6.25v6.25h-6.25ZM51.56 89.06h3.13v3.13h-3.13ZM50.78 88.28h1.56v1.56h-1.56ZM53.91 88.28h1.56v1.56h-1.56ZM50.78 91.41h1.56v1.56h-1.56ZM53.91 91.41h1.56v1.56h-1.56ZM57.81 89.06h3.13v3.13h-3.13ZM57.03 88.28h1.56v1.56h-1.56ZM60.16 88.28h1.56v1.56h-1.56ZM57.03 91.41h1.56v1.56h-1.56ZM60.16 91.41h1.56v1.56h-1.56ZM51.56 95.31h3.13v3.13h-3.13ZM50.78 94.53h1.56v1.56h-1.56ZM53.91 94.53h1.56v1.56h-1.56ZM50.78 97.66h1.56v1.56h-1.56ZM53.91 97.66h1.56v1.56h-1.56ZM57.81 95.31h3.13v3.13h-3.13ZM57.03 94.53h1.56v1.56h-1.56ZM60.16 94.53h1.56v1.56h-1.56ZM57.03 97.66h1.56v1.56h-1.56ZM60.16 97.66h1.56v1.56h-1.56ZM65.63 90.63h6.25v6.25h-6.25ZM64.06 89.06h3.13v3.13h-3.13ZM63.28 88.28h1.56v1.56h-1.56ZM66.41 88.28h1.56v1.56h-1.56ZM63.28 91.41h1.56v1.56h-1.56ZM66.41 91.41h1.56v1.56h-1.56ZM70.31 89.06h3.13v3.13h-3.13ZM69.53 88.28h1.56v1.56h-1.56ZM72.66 88.28h1.56v1.56h-1.56ZM69.53 91.41h1.56v1.56h-1.56ZM72.66 91.41h1.56v1.56h-1.56ZM64.06 95.31h3.13v3.13h-3.13ZM63.28 94.53h1.56v1.56h-1.56ZM66.41 94.53h1.56v1.56h-1.56ZM63.28 97.66h1.56v1.56h-1.56ZM66.41 97.66h1.56v1.56h-1.56ZM70.31 95.31h3.13v3.13h-3.13ZM69.53 94.53h1.56v1.56h-1.56ZM72.66 94.53h1.56v1.56h-1.56ZM69.53 97.66h1.56v1.56h-1.56ZM72.66 97.66h1.56v1.56h-1.56ZM81.25 81.25h12.50v12.50h-12.5ZM78.13 78.13h6.25v6.25h-6.25ZM76.56 76.56h3.13v3.13h-3.13ZM75.78 75.78h1.56v1.56h-1.56ZM78.91 75.78h1.56v1.56h-1.56ZM75.78 78.91h1.56v1.56h-1.56ZM78.91 78.91h1.56v1.56h-1.56ZM82.81 76.56h3.13v3.13h-3.13ZM82.03 75.78h1.56v1.56h-1.56ZM85.16 75.78h1.56v1.56h-1.56ZM82.03 78.91h1.56v1.56h-1.56ZM85.16 78.91h1.56v1.56h-1.56ZM76.56 82.81h3.13v3.13h-3.13ZM75.78 82.03h1.56v1.56h-1.56ZM78.91 82.03h1.56v1.56h-1.56ZM75.78 85.16h1.56v1.56h-1.56ZM78.91 85.16h1.56v1.56h-1.56ZM82.81 82.81h3.13v3.13h-3.13ZM82.03 82.03h1.56v1.56h-1.56ZM85.16 82.03h1.56v1.56h-1.56ZM82.03 85.16h1.56v1.56h-1.56ZM85.16 85.16h1.56v1.56h-1.56ZM90.63 78.13h6.25v6.25h-6.25ZM89.06 76.56h3.13v3.13h-3.13ZM88.28 75.78h1.56v1.56h-1.56ZM91.41 75.78h1.56v1.56h-1.56ZM88.28 78.91h1.56v1.56h-1.56ZM91.41 78.91h1.56v1.56h-1.56ZM95.31 76.56h3.13v3.13h-3.13ZM94.53 75.78h1.56v1.56h-1.56ZM97.66 75.78h1.56v1.56h-1.56ZM94.53 78.91h1.56v1.56h-1.56ZM97.66 78.91h1.56v1.56h-1.56ZM89.06 82.81h3.13v3.13h-3.13ZM88.28 82.03h1.56v1.56h-1.56ZM91.41 82.03h1.56v1.56h-1.56ZM88.28 85.16h1.56v1.56h-1.56ZM91.41 85.16h1.56v1.56h-1.56ZM95.31 82.81h3.13v3.13h-3.13ZM94.53 82.03h1.56v1.56h-1.56ZM97.66 82.03h1.56v1.56h-1.56ZM94.53 85.16h1.56v1.56h-1.56ZM97.66 85.16h1.56v1.56h-1.56ZM78.13 90.63h6.25v6.25h-6.25ZM76.56 89.06h3.13v3.13h-3.13ZM75.78 88.28h1.56v1.56h-1.56ZM78.91 88.28h1.56v1.56h-1.56ZM75.78 91.41h1.56v1.56h-1.56ZM78.91 91.41h1.56v1.56h-1.56ZM82.81 89.06h3.13v3.13h-3.13ZM82.03 88.28h1.56v1.56h-1.56ZM85.16 88.28h1.56v1.56h-1.56ZM82.03 91.41h1.56v1.56h-1.56ZM85.16 91.41h1.56v1.56h-1.56ZM76.56 95.31h3.13v3.13h-3.13ZM75.78 94.53h1.56v1.56h-1.56ZM78.91 94.53h1.56v1.56h-1.56ZM75.78 97.66h1.56v1.56h-1.56ZM78.91 97.66h1.56v1.56h-1.56ZM82.81 95.31h3.13v3.13h-3.13ZM82.03 94.53h1.56v1.56h-1.56ZM85.16 94.53h1.56v1.56h-1.56ZM82.03 97.66h1.56v1.56h-1.56ZM85.16 97.66h1.56v1.56h-1.56ZM90.63 90.63h6.25v6.25h-6.25ZM89.06 89.06h3.13v3.13h-3.13ZM88.28 88.28h1.56v1.56h-1.56ZM91.41 88.28h1.56v1.56h-1.56ZM88.28 91.41h1.56v1.56h-1.56ZM91.41 91.41h1.56v1.56h-1.56ZM95.31 89.06h3.13v3.13h-3.13ZM94.53 88.28h1.56v1.56h-1.56ZM97.66 88.28h1.56v1.56h-1.56ZM94.53 91.41h1.56v1.56h-1.56ZM97.66 91.41h1.56v1.56h-1.56ZM89.06 95.31h3.13v3.13h-3.13ZM88.28 94.53h1.56v1.56h-1.56ZM91.41 94.53h1.56v1.56h-1.56ZM88.28 97.66h1.56v1.56h-1.56ZM91.41 97.66h1.56v1.56h-1.56ZM95.31 95.31h3.13v3.13h-3.13ZM94.53 94.53h1.56v1.56h-1.56ZM97.66 94.53h1.56v1.56h-1.56ZM94.53 97.66h1.56v1.56h-1.56ZM97.66 97.66h1.56v1.56h-1.56Z" fill="black" stroke="none"/>
</svg>